<svg width="156" height="159" viewBox="0 0 156 159" fill="none" xmlns="http://www.w3.org/2000/svg">
<path d="M138.739 109.603H148.643V105.418H138.739V109.603Z" fill="#EBEBEB"/>
<path d="M144.267 114.88L149.26 114.776L151.721 114.734C152.54 114.716 153.356 114.734 154.171 114.712L154.003 114.88V110.695L154.19 110.882L149.238 110.86C147.589 110.86 145.935 110.815 144.286 110.796L144.387 110.695C144.387 111.379 144.357 112.068 144.338 112.763L144.267 114.88ZM144.267 114.88L144.2 112.827C144.181 112.131 144.155 111.424 144.151 110.714V110.583H144.256C145.905 110.56 147.559 110.523 149.208 110.519L154.16 110.497H154.347V110.684L154.324 114.869V115.037H154.16C153.326 115.037 152.488 115.037 151.654 115.019L149.163 114.977L144.267 114.88Z" fill="#EBEBEB"/>
<path d="M71.3202 73.7726L76.317 73.6679L78.7743 73.6268C79.5934 73.6081 80.4087 73.6268 81.224 73.6081L81.0557 73.7726L81.037 69.5875L81.224 69.7745L76.2721 69.752C74.6227 69.752 72.9696 69.7109 71.3202 69.6884L71.4212 69.5875C71.4212 70.2719 71.3913 70.9601 71.3726 71.6595L71.3202 73.7726ZM71.3202 73.7726L71.2679 71.6857C71.2492 70.99 71.2267 70.2831 71.2192 69.5725V69.4715H71.324C72.9733 69.4528 74.6265 69.4117 76.2759 69.4079L81.2278 69.3855H81.4148V69.5725L81.3961 73.7577V73.9297H81.2315C80.3975 73.9297 79.5597 73.9297 78.7294 73.9073L76.2347 73.8661L71.3202 73.7726Z" fill="#EBEBEB"/>
<path d="M76.8444 79.05H86.7482V74.8649H76.8444V79.05Z" fill="#EBEBEB"/>
<path d="M65.71 79.0499L70.7068 78.9452L73.1678 78.9041C73.9869 78.8854 74.7985 78.9041 75.6138 78.8854L75.4492 79.0499L75.4268 74.8647L75.6138 75.0517L70.6619 75.0293C69.0125 75.0293 67.3631 74.9882 65.71 74.9657L65.8147 74.8647C65.8147 75.5492 65.7811 76.2374 65.7661 76.9368L65.71 79.0499ZM65.71 79.0499L65.6576 76.9779C65.6576 76.2822 65.6165 75.5754 65.609 74.8647V74.7638H65.71C67.3631 74.7638 69.0125 74.7039 70.6619 74.7002L75.6138 74.6777H75.8046V74.8647L75.7859 79.0499V79.2182H75.6175C74.7835 79.2182 73.9457 79.2182 73.1154 79.1958L70.6245 79.1546L65.71 79.0499Z" fill="#EBEBEB"/>
<path d="M86.5686 26.0413H96.4724V21.8561H86.5686V26.0413Z" fill="#EBEBEB"/>
<path d="M1.82901 114.88L6.8258 114.776L9.28679 114.734C10.1021 114.716 10.9175 114.734 11.7328 114.712L11.5683 114.88L11.5458 110.695L11.7328 110.882L6.78092 110.86C5.13153 110.86 3.4784 110.815 1.82901 110.796L1.92999 110.695C1.92999 111.379 1.90007 112.068 1.88137 112.763L1.82901 114.88ZM1.82901 114.88L1.77665 112.827C1.75795 112.131 1.73551 111.424 1.72803 110.714V110.583H1.82901C3.4784 110.56 5.13153 110.523 6.78092 110.519L11.7328 110.497H11.9198V110.684V114.869V115.037H11.7515C10.9175 115.037 10.0797 115.037 9.24939 115.019L6.75848 114.977L1.82901 114.88Z" fill="#EBEBEB"/>
<path d="M7.35295 8.92663L12.3497 8.82191L14.8107 8.78077C15.6298 8.76207 16.4414 8.78077 17.2568 8.75833L17.0922 8.92663L17.0698 4.73771L17.2568 4.92471L12.3049 4.90227C10.6555 4.90227 9.00608 4.85739 7.35295 4.83869L7.45767 4.73771C7.45767 5.42215 7.42401 6.11033 7.40531 6.80973L7.35295 8.92663ZM7.35295 8.92663L7.31181 6.85461C7.31181 6.15895 7.27066 5.45207 7.26318 4.74145V4.64047H7.36417C9.0173 4.62177 10.6667 4.58062 12.3161 4.57688L17.268 4.55444H17.4587V4.73771L17.4101 8.92663V9.09494H17.2418C16.4078 9.09494 15.57 9.09494 14.7397 9.0725L12.2488 9.03136L7.35295 8.92663Z" fill="#EBEBEB"/>
<path d="M1.82885 14.2039L11.7327 14.2039V10.0187H1.82885V14.2039Z" fill="#EBEBEB"/>
<path d="M144.267 8.92663L149.26 8.82191L151.721 8.78077C152.54 8.76207 153.356 8.78077 154.171 8.75833L154.003 8.92663V4.74145L154.19 4.92845L149.238 4.90601C147.589 4.90601 145.935 4.86113 144.286 4.84243L144.387 4.74145C144.387 5.42589 144.357 6.11407 144.338 6.81347L144.267 8.92663ZM144.267 8.92663L144.2 6.85461C144.181 6.15895 144.155 5.45207 144.151 4.74145V4.64047H144.256C145.905 4.62177 147.559 4.58062 149.208 4.57688L154.16 4.55444H154.347V4.73771L154.336 8.92663V9.09494H154.171C153.337 9.09494 152.499 9.09494 151.665 9.0725L149.174 9.03136L144.267 8.92663Z" fill="#EBEBEB"/>
<path d="M47.8062 128.449H20.8961V158.247H47.8062V128.449Z" fill="#EBEBEB"/>
<path d="M7.00527 158.25H20.8998L20.8998 128.449H7.00527L7.00527 158.25Z" fill="#DBDBDB"/>
<path d="M7.95898 156.212C8.99125 154.093 10.0111 151.973 11.0184 149.854L14.0441 143.41L17.0362 136.973C18.0336 134.824 19.011 132.667 19.9685 130.503C18.9362 132.622 17.9164 134.748 16.9091 136.88L13.8945 143.29L10.9025 149.727C9.90758 151.879 8.92643 154.04 7.95898 156.212Z" fill="#EBEBEB"/>
<path d="M7.95898 130.503C8.92643 132.669 9.90384 134.826 10.8912 136.973L13.8833 143.41L16.8978 149.82C17.9077 151.952 18.9275 154.072 19.9573 156.179C18.9898 154.014 18.0124 151.857 17.025 149.708L14.0329 143.271L11.0184 136.861C10.0086 134.741 8.98876 132.622 7.95898 130.503Z" fill="#EBEBEB"/>
<path d="M47.8062 83.4446H20.8961V111.189H47.8062V83.4446Z" fill="#EBEBEB"/>
<path d="M7.00527 111.193H20.8998L20.8998 83.445H7.00527L7.00527 111.193Z" fill="#DBDBDB"/>
<path d="M32.0677 89.8851H32.64H33.0664L33.3095 89.3876L33.6536 89.8851L34.1173 88.864L34.5587 89.8851H35.8191H36.3913L36.6008 89.2043L36.7952 89.8851H37.1693V83.4446H32.0677V89.8851Z" fill="#DBDBDB"/>
<path d="M7.95898 109.424C8.99125 107.454 10.0111 105.472 11.0184 103.477L14.0329 97.4926L17.025 91.5085C18.0224 89.5137 18.9998 87.5053 19.9573 85.4832C18.925 87.4579 17.9052 89.4377 16.8978 91.4224L13.8833 97.3879L10.8912 103.372C9.90384 105.389 8.92643 107.406 7.95898 109.424Z" fill="#EBEBEB"/>
<path d="M7.95898 85.498C8.92643 87.5102 9.90384 89.5137 10.8912 91.5084L13.8833 97.4926L16.8978 103.477C17.9077 105.471 18.9275 107.451 19.9573 109.416C18.9898 107.401 18.0124 105.393 17.025 103.391L14.0329 97.4066L11.0184 91.4411C10.0086 89.4538 8.98876 87.4728 7.95898 85.498Z" fill="#EBEBEB"/>
<path d="M22.6689 109.468H25.6572V106.48H22.6689V109.468Z" fill="white"/>
<path d="M46.0146 111.193H19.1045V128.45H46.0146V111.193Z" fill="#DBDBDB"/>
<path d="M5.20998 128.449H19.1045L19.1045 111.193H5.20998L5.20998 128.449Z" fill="#C7C7C7"/>
<path d="M30.2762 117.633H30.8447H31.2749L31.518 117.136L31.8621 117.633L32.3258 116.612L32.7672 117.633H34.0238H34.5998L34.8055 116.953L35.0037 117.633H35.3778V111.193H30.2762V117.633Z" fill="white"/>
<path d="M6.16748 127.413C7.19726 126.167 8.21706 124.909 9.22689 123.64L12.2414 119.847L15.2335 116.036C16.2159 114.764 17.1921 113.488 18.162 112.206C17.1347 113.453 16.1149 114.711 15.1026 115.98L12.0881 119.776L9.09599 123.583C8.11109 124.863 7.13492 126.139 6.16748 127.413Z" fill="#DBDBDB"/>
<path d="M6.16748 112.217C7.13742 113.499 8.11483 114.776 9.09973 116.047L12.0918 119.858L15.1063 123.651C16.1037 124.912 17.121 126.167 18.1583 127.413C17.1933 126.132 16.2172 124.855 15.2298 123.583L12.2377 119.776L9.22315 115.98C8.21582 114.728 7.19726 113.474 6.16748 112.217Z" fill="#DBDBDB"/>
<path d="M150.79 132.182H123.88V158.25H150.79V132.182Z" fill="#DBDBDB"/>
<path d="M109.989 158.25H123.884V132.182H109.989V158.25Z" fill="#C7C7C7"/>
<path d="M135.052 138.622H135.62H136.05L136.293 138.125L136.638 138.622L137.101 137.601L137.543 138.622H138.799H139.375L139.585 137.938L139.779 138.622H140.153V132.182H135.052V138.622Z" fill="white"/>
<path d="M110.943 156.698C111.973 154.806 112.992 152.906 114.002 150.998L117.017 145.269L120.009 139.516C121.006 137.594 121.982 135.667 122.937 133.734C121.91 135.627 120.89 137.527 119.878 139.434L116.863 145.16L113.89 150.916C112.903 152.839 111.92 154.766 110.943 156.698Z" fill="#DBDBDB"/>
<path d="M110.943 133.734C111.913 135.667 112.89 137.594 113.875 139.516L116.849 145.269L119.863 150.998C120.873 152.906 121.893 154.806 122.922 156.698C121.957 154.764 120.981 152.836 119.994 150.916L117.002 145.16L113.987 139.434C112.987 137.527 111.973 135.627 110.943 133.734Z" fill="#DBDBDB"/>
<path d="M104.001 3.2417V66.861H147.783V3.2417H104.001ZM146.167 65.2265H105.617V4.83873H146.167V65.2265Z" fill="#EBEBEB"/>
<path d="M146.167 4.83862H105.617V65.2264H146.167V4.83862Z" fill="white"/>
<path d="M105.617 37.7104L146.167 37.7104V36.0947L105.617 36.0947V37.7104Z" fill="#EBEBEB"/>
<path d="M101.024 71.4763H150.756V66.8386H101.024V71.4763Z" fill="#DBDBDB"/>
<path d="M102.344 73.3314L149.44 74.3188V71.4763H102.344V73.3314Z" fill="#EBEBEB"/>
<path d="M105.617 4.83862H146.167V46.3277H105.617V4.83862ZM144.671 6.33467H107.113V44.8316H144.671V6.33467Z" fill="#DBDBDB"/>
<path d="M133.227 4.83862H132.419V44.8316H133.227V4.83862Z" fill="#DBDBDB"/>
<path d="M119.366 4.83862H118.558V44.8316H119.366V4.83862Z" fill="#DBDBDB"/>
<path d="M8.21692 3.2417V66.861H51.9986V3.2417H8.21692ZM50.3829 65.2265H9.83265V4.83873H50.3829V65.2265Z" fill="#EBEBEB"/>
<path d="M50.383 4.83862H9.83276V65.2264H50.383V4.83862Z" fill="white"/>
<path d="M9.83278 37.7104L50.3831 37.7104V36.0947L9.83278 36.0947V37.7104Z" fill="#EBEBEB"/>
<path d="M5.23992 71.4763H54.9722V66.8386H5.23992V71.4763Z" fill="#DBDBDB"/>
<path d="M6.56018 73.3314L53.6556 74.3188V71.4763H6.56018V73.3314Z" fill="#EBEBEB"/>
<path d="M9.83276 4.83862H50.383V46.3277H9.83276V4.83862ZM48.887 6.33467H11.3288V44.8316H48.887V6.33467Z" fill="#DBDBDB"/>
<path d="M37.4423 4.83862H36.6344V44.8316H37.4423V4.83862Z" fill="#DBDBDB"/>
<path d="M23.5813 4.83862H22.7734V44.8316H23.5813V4.83862Z" fill="#DBDBDB"/>
<path d="M111.179 127.432H73.8971V158.235H111.179V127.432Z" fill="#278AFF"/>
<path opacity="0.1" d="M111.179 127.432H73.8971V158.235H111.179V127.432Z" fill="black"/>
<path d="M125.952 127.436H111.178V158.24H125.952V127.436Z" fill="#278AFF"/>
<path opacity="0.2" d="M125.952 127.436H111.178V158.24H125.952V127.436Z" fill="black"/>
<path d="M124.931 156.115C123.839 153.926 122.756 151.729 121.681 149.525L118.476 142.898L115.311 136.244C114.264 134.022 113.226 131.793 112.196 129.557C113.293 131.748 114.378 133.945 115.45 136.147L118.651 142.774L121.815 149.428C122.868 151.649 123.906 153.879 124.931 156.115Z" fill="#278AFF"/>
<path d="M124.931 129.557C123.904 131.801 122.865 134.03 121.815 136.244L118.651 142.898L115.45 149.525C114.375 151.727 113.291 153.923 112.196 156.115C113.226 153.871 114.264 151.642 115.311 149.428L118.476 142.774L121.681 136.15C122.756 133.944 123.839 131.746 124.931 129.557Z" fill="#278AFF"/>
<path d="M95.1747 134.09H94.5875H94.1424L93.8918 133.577L93.5365 134.09L93.054 133.035L92.6015 134.09H91.2999H90.7052L90.4883 133.387L90.2864 134.09H89.9011V127.436H95.1747V134.09Z" fill="white"/>
<path d="M113.426 96.6323H85.6111V127.432H113.426V96.6323Z" fill="#278AFF"/>
<path d="M127.788 96.6323H113.426V127.436H127.788V96.6323Z" fill="#278AFF"/>
<path opacity="0.1" d="M127.788 96.6323H113.426V127.436H127.788V96.6323Z" fill="black"/>
<g opacity="0.1">
<path d="M111.388 125.312C109.346 123.12 107.321 120.923 105.314 118.721L99.3186 112.079L93.413 105.425C91.4532 103.204 89.5133 100.975 87.5934 98.738C89.638 100.93 91.6626 103.128 93.6673 105.332L99.6515 111.956L105.557 118.609C107.524 120.841 109.468 123.075 111.388 125.312Z" fill="black"/>
<path d="M111.388 98.7529C109.466 100.997 107.526 103.226 105.569 105.44L99.663 112.079L93.6788 118.706C91.6841 120.908 89.6594 123.105 87.6049 125.296C89.5273 123.052 91.4671 120.823 93.4245 118.609L99.3189 111.97L105.303 105.347C107.315 103.14 109.344 100.942 111.388 98.7529Z" fill="black"/>
</g>
<path d="M125.769 122.222H123.252V125.775H125.769V122.222Z" fill="white"/>
<path d="M0 158.25L19.5009 158.157L39.0019 158.127L78 158.063L116.998 158.127L136.499 158.157L156 158.25L136.499 158.34L116.998 158.374L78 158.437L39.0019 158.374L19.5009 158.34L0 158.25Z" fill="#263238"/>
<path d="M92.8558 52.1624C92.6463 52.0278 92.4369 51.8969 92.2274 51.7697L92.3733 51.5266L93.0091 51.9268L92.8558 52.1624Z" fill="#263238"/>
<path d="M83.7224 89.6382H83.4531V89.3577C83.9525 89.3688 84.4521 89.3501 84.9492 89.3016L84.9791 89.5821C84.5714 89.612 84.145 89.6382 83.7224 89.6382ZM86.4976 89.3315L86.4377 89.0585C86.9242 88.9483 87.4018 88.802 87.8665 88.6209L87.9674 88.8827C87.4891 89.0661 86.9978 89.2136 86.4976 89.324V89.3315ZM89.3513 88.2095L89.2129 87.9664C89.6428 87.7154 90.0518 87.4302 90.4359 87.1136L90.6154 87.3268C90.2196 87.6571 89.7967 87.9536 89.3513 88.2132V88.2095ZM91.7188 86.2646L91.5131 86.0739C91.8487 85.705 92.1574 85.3125 92.4369 84.8995L92.6688 85.0565C92.382 85.4843 92.0645 85.8905 91.7188 86.2721V86.2646ZM93.4317 83.7251L93.1774 83.6054C93.3906 83.1549 93.5646 82.6869 93.6973 82.2066L93.9666 82.2814C93.8308 82.7785 93.6518 83.2628 93.4317 83.7288V83.7251ZM94.2396 80.7629L93.9591 80.7405C93.9591 80.5385 93.9853 80.3328 93.9853 80.1346C93.9842 79.8571 93.968 79.5799 93.9367 79.3043C93.6456 79.2847 93.3559 79.2485 93.069 79.1958L93.1176 78.919C93.5743 79.0015 94.0373 79.044 94.5014 79.0462H94.5987V79.3267H94.4977H94.2172C94.2471 79.5974 94.2621 79.8696 94.2621 80.142C94.2658 80.344 94.2546 80.5572 94.2396 80.7666V80.7629ZM96.1358 79.1397L96.0723 78.8667C96.5533 78.7528 97.0191 78.582 97.4598 78.358L97.587 78.6086C97.1261 78.8436 96.639 79.0232 96.1358 79.1434V79.1397ZM91.5804 78.7919C91.0967 78.6175 90.6278 78.4049 90.1778 78.156L90.3162 77.9129C90.7516 78.1534 91.2056 78.3586 91.6739 78.5263L91.5804 78.7919ZM93.5926 77.8045C93.4285 77.3368 93.2127 76.889 92.9493 76.4693L93.1849 76.3197C93.462 76.756 93.6879 77.2229 93.8581 77.711L93.5926 77.8045ZM98.8736 77.7446L98.6941 77.5315C99.0735 77.2109 99.4205 76.8539 99.7301 76.4655L99.947 76.6413C99.6275 77.0479 99.2679 77.4213 98.8736 77.7559V77.7446ZM88.91 77.2958L88.8314 77.221C88.4612 76.8958 88.1663 76.4937 87.9674 76.0429L88.2293 75.9382C88.4116 76.3509 88.6823 76.7186 89.0222 77.0153L89.097 77.0826L88.91 77.2958ZM100.815 75.3846L100.575 75.2388C100.837 74.8049 101.08 74.3598 101.293 73.9222L101.548 74.0457C101.331 74.4907 101.084 74.9433 100.815 75.3846ZM92.018 75.3285C91.6763 74.9976 91.3001 74.7042 90.896 74.4533L90.8398 74.4159L90.9857 74.1766L91.0456 74.214C91.4625 74.4771 91.85 74.7843 92.2012 75.1303L92.018 75.3285ZM88.304 74.6067L88.0722 74.4496C88.2323 74.2246 88.4445 74.0417 88.6907 73.9167C88.937 73.7916 89.2098 73.7281 89.4859 73.7315V74.012C89.2559 74.0107 89.0289 74.0639 88.8235 74.1672C88.618 74.2706 88.44 74.4212 88.304 74.6067ZM102.142 72.6356L101.881 72.5384C102.054 72.069 102.202 71.5908 102.326 71.1059L102.595 71.1733C102.474 71.6692 102.325 72.1575 102.146 72.6356H102.142ZM102.89 69.6697L102.61 69.6323C102.677 69.1362 102.715 68.6368 102.726 68.1363H103.006C102.996 68.6492 102.958 69.1611 102.89 69.6697ZM102.674 66.6402C102.629 66.1382 102.557 65.6388 102.46 65.1442L102.737 65.0881C102.835 65.5891 102.907 66.0946 102.954 66.6028L102.674 66.6402ZM102.094 63.7005C101.952 63.2293 101.783 62.7543 101.589 62.283L101.851 62.1783C102.045 62.6533 102.225 63.1395 102.363 63.6182L102.094 63.7005ZM100.972 60.9141C100.747 60.4765 100.497 60.0352 100.224 59.6014L100.463 59.4555C100.732 59.8931 100.987 60.3419 101.211 60.787L100.972 60.9141ZM99.3972 58.3484C99.1092 57.9445 98.7988 57.5443 98.4772 57.1553L98.6941 56.9758C99.0195 57.3685 99.3336 57.7762 99.6254 58.1839L99.3972 58.3484ZM97.4823 56.0221C97.1419 55.6481 96.7829 55.3002 96.4163 54.9561L96.6071 54.7504C96.9811 55.102 97.3551 55.4648 97.6843 55.8313L97.4823 56.0221ZM95.2868 53.9538C94.9128 53.6359 94.5052 53.3217 94.105 53.0225L94.2695 52.7981C94.6772 53.0973 95.0811 53.4152 95.4664 53.7406L95.2868 53.9538Z" fill="#263238"/>
<path d="M81.8858 89.5036C81.6342 89.4724 81.3845 89.4274 81.1378 89.369L81.2051 89.0959C81.2051 89.0959 81.4744 89.1633 81.9232 89.2269L81.8858 89.5036Z" fill="#263238"/>
<path d="M78.1123 88.9463C77.9365 90.4424 80.9922 91.2802 81.224 89.3203C81.4559 87.3605 78.2881 87.4391 78.1123 88.9463Z" fill="#263238"/>
<path d="M82.1142 91.4222C81.8299 91.9869 80.8238 92.0655 79.7841 91.3399C79.078 90.8008 78.4813 90.1318 78.0262 89.3689C78.9055 89.2772 79.7942 89.3547 80.6443 89.597C81.8748 90.0122 82.4134 90.8499 82.1142 91.4222Z" fill="#EBEBEB"/>
<path d="M78.0374 89.3691C78.6283 89.6347 79.208 89.9227 79.7877 90.2069C80.3674 90.4912 80.9397 90.7941 81.5044 91.1083C80.9135 90.8427 80.3338 90.5548 79.7541 90.2705C79.1743 89.9863 78.6021 89.6833 78.0374 89.3691Z" fill="#263238"/>
<path d="M80.7527 91.4111C80.6184 91.2554 80.4935 91.0918 80.3787 90.9212C80.2658 90.7518 80.1633 90.5757 80.072 90.3938C80.2063 90.5495 80.3312 90.7132 80.446 90.8838C80.5598 91.0526 80.6622 91.2287 80.7527 91.4111Z" fill="#263238"/>
<path d="M79.496 90.0983C79.7018 90.0448 79.9103 90.0024 80.1206 89.9711C80.3326 89.9412 80.5461 89.9224 80.7601 89.915C80.3459 90.0182 79.9224 90.0796 79.496 90.0983Z" fill="#263238"/>
<path d="M79.1708 90.3451C79.0421 90.185 78.9502 89.9986 78.9015 89.7991C79.0302 89.9592 79.1221 90.1456 79.1708 90.3451Z" fill="#263238"/>
<path d="M82.608 87.5065C82.4621 86.8894 81.5046 86.5827 80.3265 87.0465C79.5134 87.4085 78.7771 87.9226 78.1572 88.5612C78.9979 88.8524 79.8867 88.9793 80.7753 88.9353C82.0357 88.8305 82.7576 88.1423 82.608 87.5065Z" fill="#EBEBEB"/>
<path d="M78.1572 88.5611C78.793 88.4414 79.4251 88.2918 80.0535 88.146C80.6818 88.0001 81.3101 87.843 81.9235 87.6672C81.2914 87.7869 80.6594 87.9365 80.031 88.0824C79.4027 88.2282 78.7818 88.3853 78.1572 88.5611Z" fill="#263238"/>
<path d="M81.2726 87.1997C81.1098 87.3155 80.9537 87.4403 80.8051 87.5737C80.6567 87.7134 80.5156 87.8607 80.3824 88.015C80.5469 87.9015 80.7031 87.7765 80.85 87.641C80.9993 87.5023 81.1404 87.3549 81.2726 87.1997Z" fill="#263238"/>
<path d="M79.7391 88.187C80.1181 88.3842 80.5167 88.5409 80.9285 88.6545C80.5503 88.4556 80.1515 88.2989 79.7391 88.187Z" fill="#263238"/>
<path d="M79.496 87.8728C79.4146 87.9338 79.3405 88.0041 79.2754 88.0822C79.2107 88.1624 79.1544 88.2489 79.1071 88.3403C79.1886 88.278 79.2627 88.2065 79.3277 88.1271C79.3956 88.0508 79.4523 87.9652 79.496 87.8728Z" fill="#263238"/>
<path d="M78.1123 88.9466C78.2194 88.9591 78.3204 89.003 78.4026 89.0729C78.4848 89.1427 78.5445 89.2353 78.5742 89.339C78.6038 89.4427 78.602 89.5529 78.5691 89.6556C78.5362 89.7583 78.4736 89.849 78.3893 89.9162C78.3049 89.9834 78.2025 90.0241 78.095 90.0331C77.9875 90.0422 77.8798 90.0192 77.7853 89.9671C77.6909 89.915 77.614 89.8361 77.5643 89.7404C77.5147 89.6446 77.4945 89.5363 77.5063 89.4291C77.5233 89.285 77.5964 89.1534 77.7099 89.0631C77.8234 88.9727 77.968 88.9308 78.1123 88.9466Z" fill="#455A64"/>
<path d="M78.2393 87.858C78.3107 87.8663 78.3799 87.8886 78.4427 87.9237C78.5055 87.9588 78.5608 88.0059 78.6055 88.0623C78.6501 88.1187 78.6832 88.1834 78.7028 88.2526C78.7224 88.3219 78.7282 88.3943 78.7199 88.4657C78.7115 88.5372 78.6892 88.6063 78.6541 88.6691C78.6191 88.732 78.572 88.7873 78.5155 88.8319C78.4591 88.8765 78.3944 88.9096 78.3252 88.9292C78.256 88.9489 78.1836 88.9547 78.1121 88.9463C77.9678 88.9295 77.8361 88.856 77.7459 88.742C77.6558 88.628 77.6146 88.4829 77.6315 88.3386C77.6484 88.1942 77.7219 88.0625 77.8359 87.9724C77.9498 87.8823 78.095 87.8411 78.2393 87.858Z" fill="#455A64"/>
<path d="M44.3391 124.163C44.3391 124.163 36.3652 140.129 36.3614 140.129C35.7032 143.424 35.187 146.33 35.0561 147.856C35.0542 147.865 35.0542 147.874 35.0561 147.883C34.9871 148.236 35.0012 148.601 35.0973 148.949C35.0954 148.957 35.0954 148.966 35.0973 148.975C35.9463 149.835 62.1495 155.868 63.1481 155.771C64.1467 155.673 63.9335 152.857 63.1032 151.813C62.2729 150.77 53.2705 143.959 53.2705 143.959L61.0649 127.967L44.3391 124.163Z" fill="#D3766A"/>
<path d="M62.7515 155.786C61.7679 155.883 35.9574 149.846 35.1121 148.99C35.1109 148.981 35.1109 148.972 35.1121 148.964C35.0142 148.617 34.9988 148.252 35.0672 147.898C35.0641 147.889 35.0641 147.88 35.0672 147.872C35.1944 146.346 35.7143 143.44 36.3688 140.141L38.2762 136.318L54.8113 140.851L53.2853 143.986C53.2853 143.986 61.8875 150.781 62.7216 151.84C63.5556 152.898 63.7389 155.692 62.7515 155.786Z" fill="#EBEBEB"/>
<path d="M63.1106 155.367C62.112 155.442 35.8452 148.747 35.0074 147.857C34.6858 147.524 35.4375 143.638 36.481 138.97L36.5147 138.824L53.5097 142.957L53.4312 143.241C53.4312 143.241 62.3364 150.303 63.1555 151.38C63.9746 152.457 64.1055 155.296 63.1106 155.367Z" fill="#263238"/>
<path d="M63.0694 154.271C58.671 153.037 40.8083 148.459 36.365 147.569C36.3276 147.569 36.3201 147.587 36.365 147.599C40.6998 148.919 58.6 153.351 63.0619 154.331C63.148 154.364 63.1629 154.297 63.0694 154.271Z" fill="white"/>
<path d="M54.8412 143.657C53.1806 142.886 50.9814 142.609 49.3358 143.514C49.2722 143.548 49.3358 143.638 49.3807 143.634C51.183 143.521 52.9924 143.601 54.7777 143.874C54.8039 143.875 54.8298 143.868 54.8513 143.853C54.8728 143.838 54.8885 143.816 54.8959 143.79C54.9033 143.765 54.9019 143.738 54.892 143.714C54.882 143.69 54.8642 143.669 54.8412 143.657Z" fill="white"/>
<path d="M55.9034 144.733C54.2465 143.967 52.0473 143.69 50.3979 144.591C50.3344 144.625 50.3979 144.715 50.4466 144.715C52.2489 144.6 54.0584 144.68 55.8435 144.954C55.8708 144.957 55.8981 144.95 55.9207 144.934C55.9432 144.919 55.9595 144.895 55.9667 144.869C55.9739 144.843 55.9714 144.814 55.9599 144.79C55.9483 144.765 55.9283 144.745 55.9034 144.733Z" fill="white"/>
<path d="M56.9694 145.815C55.3088 145.044 53.1096 144.767 51.464 145.669C51.4004 145.706 51.464 145.796 51.5126 145.792C53.3137 145.679 55.1218 145.76 56.9058 146.032C56.9321 146.033 56.958 146.026 56.9795 146.011C57.001 145.996 57.0167 145.974 57.0241 145.949C57.0315 145.923 57.0301 145.896 57.0202 145.872C57.0102 145.848 56.9923 145.828 56.9694 145.815Z" fill="white"/>
<path d="M63.7502 154.529C64.1728 154.828 63.6679 156.38 63.2976 156.421C62.9274 156.463 34.3193 149.035 33.8667 148.799C33.4141 148.563 34.035 146.865 34.6147 146.929C35.1944 146.993 63.7502 154.529 63.7502 154.529Z" fill="#278AFF"/>
<path d="M40.1015 142.871C38.4409 141.435 36.2043 144.015 37.8574 145.455C39.5106 146.895 41.7659 144.311 40.1015 142.871Z" fill="white"/>
<path d="M38.325 135.043L57.4893 139.875C57.4893 139.875 75.352 107.639 74.9519 99.4446C74.4021 88.142 61.1321 53.3889 61.1321 53.3889H45.2442C45.2442 53.3889 55.7875 90.9583 55.9334 97.2791C55.997 100.585 38.325 135.043 38.325 135.043Z" fill="#455A64"/>
<path d="M58.3083 135.985C57.2873 135.578 48.1651 132.945 41.3581 131.497C41.3506 131.5 41.3441 131.505 41.3395 131.511C41.3349 131.517 41.3324 131.525 41.3324 131.533C41.3324 131.541 41.3349 131.548 41.3395 131.555C41.3441 131.561 41.3506 131.566 41.3581 131.568C43.5012 132.316 57.0254 135.881 58.2933 136.056C58.3233 136.068 58.3532 136.015 58.3083 135.985Z" fill="#263238"/>
<path d="M57.2499 89.2081C55.9857 83.9046 54.6318 78.6161 53.2105 73.3612C51.7893 68.1064 50.2671 62.8029 48.5952 57.5892C48.3933 56.9496 48.1801 56.3175 47.9744 55.6817C47.9684 55.6614 47.9546 55.6442 47.9361 55.6341C47.9175 55.6239 47.8956 55.6215 47.8753 55.6275C47.8549 55.6334 47.8378 55.6472 47.8276 55.6658C47.8175 55.6844 47.8151 55.7063 47.821 55.7266C49.3171 60.9216 50.8131 66.1054 52.2306 71.3191C53.6481 76.5328 54.9983 81.7615 56.2699 87.0276C56.5879 88.3291 56.8983 89.627 57.2012 90.9323C57.5533 92.2701 57.8256 93.6276 58.0166 94.9978C58.1738 96.3069 58.0837 97.634 57.751 98.9099C57.3901 100.164 56.9183 101.383 56.341 102.553C54.0496 107.527 51.7594 112.503 49.4704 117.48C47.1815 122.469 46.8112 123.606 44.6083 128.636C44.3353 129.261 44.0622 129.886 43.8004 130.506C43.8004 130.548 43.8416 130.585 43.864 130.54C46.3699 125.611 46.7551 124.425 49.1002 119.406C51.4452 114.386 53.7753 109.307 56.1016 104.255C57.1489 101.973 58.3794 99.6467 58.5365 97.096C58.6935 94.433 57.8558 91.7626 57.2499 89.2081Z" fill="#263238"/>
<path d="M58.1176 130.476L58.7309 148.055C58.8319 151.421 58.9778 154.365 59.1984 155.879C59.1966 155.888 59.1966 155.897 59.1984 155.905C59.211 156.265 59.3057 156.617 59.4752 156.934L59.4977 156.956C60.5187 157.603 87.4064 157.589 88.3451 157.271C89.2839 156.953 88.4536 154.26 87.4101 153.426C86.3666 152.592 76.0663 147.995 76.0663 147.995L75.2847 130.435L58.1176 130.476Z" fill="#D3766A"/>
<path d="M58.6038 144.457C58.6038 144.457 58.7309 148.055 58.7309 148.066C58.8319 151.432 58.9778 154.376 59.1984 155.89C59.1966 155.899 59.1966 155.908 59.1984 155.917C59.2495 156.269 59.3425 156.615 59.4752 156.945L59.4976 156.968C60.5187 157.615 87.4064 157.6 88.3451 157.282C89.2839 156.964 88.4536 154.271 87.4101 153.437C86.3666 152.603 76.0663 148.006 76.0663 148.006L75.9878 144.345L58.6038 144.457Z" fill="#EBEBEB"/>
<path d="M88.3601 157.252C87.4101 157.555 60.3093 157.136 59.2845 156.463C58.9105 156.212 58.7234 152.262 58.6561 147.486V147.337L76.1449 147.411V147.711C76.1449 147.711 86.4489 152.509 87.4924 153.366C88.5359 154.222 89.3138 156.96 88.3601 157.252Z" fill="#263238"/>
<path d="M88.0721 156.212C83.5055 156.029 65.0667 155.722 60.5375 155.89C60.5 155.89 60.5 155.917 60.5375 155.917C65.0592 156.197 83.5017 156.358 88.0721 156.291C88.1656 156.268 88.1694 156.212 88.0721 156.212Z" fill="white"/>
<path d="M77.6035 147.778C75.8119 147.404 73.6053 147.655 72.214 148.9C72.1579 148.949 72.214 149.024 72.2888 149.009C74.0155 148.482 75.7933 148.139 77.5922 147.988C77.6139 147.981 77.6329 147.967 77.6468 147.949C77.6607 147.931 77.6688 147.909 77.6701 147.887C77.6713 147.864 77.6656 147.841 77.6537 147.822C77.6418 147.803 77.6243 147.787 77.6035 147.778Z" fill="white"/>
<path d="M78.8902 148.579C77.0949 148.205 74.892 148.459 73.5007 149.719C73.4446 149.768 73.5007 149.843 73.5717 149.824C75.2994 149.296 77.0786 148.955 78.8789 148.807C78.906 148.803 78.931 148.791 78.9496 148.771C78.9682 148.751 78.9791 148.725 78.9804 148.697C78.9818 148.67 78.9734 148.643 78.9569 148.622C78.9404 148.6 78.9168 148.585 78.8902 148.579Z" fill="white"/>
<path d="M80.173 149.383C78.3815 149.009 76.1785 149.259 74.7835 150.505C74.7311 150.553 74.7835 150.628 74.8583 150.613C76.5851 150.087 78.3628 149.744 80.1618 149.592C80.1834 149.585 80.2025 149.572 80.2164 149.554C80.2303 149.536 80.2384 149.514 80.2396 149.491C80.2408 149.469 80.2351 149.446 80.2232 149.427C80.2113 149.407 80.1938 149.392 80.173 149.383Z" fill="white"/>
<path d="M88.7902 156.287C89.2727 156.482 89.1418 158.108 88.7902 158.232C88.4386 158.355 58.8693 157.768 58.3868 157.648C57.9044 157.529 58.0989 155.73 58.6861 155.644C59.2733 155.558 88.7902 156.287 88.7902 156.287Z" fill="#278AFF"/>
<path d="M63.0844 150.434C61.1358 149.42 59.5575 152.45 61.5098 153.463C63.4622 154.477 65.0368 151.447 63.0844 150.434Z" fill="white"/>
<path d="M60.9339 53.3592C60.8628 53.6846 56.902 69.3444 56.4083 69.6362C55.8473 69.969 70.8003 90.0871 72.5731 99.9647C73.6951 106.282 76.3132 143.103 76.3132 143.103H57.2461C57.2461 143.103 55.3761 111.832 54.7552 101.528C54.5121 97.5299 39.5143 79.0463 38.0893 66.7226C37.6405 62.8404 40.4306 53.3442 40.4306 53.3442L60.9339 53.3592Z" fill="#455A64"/>
<path d="M56.7637 128.225C56.5393 123.045 56.3336 117.854 55.9559 112.681C55.7427 109.749 55.3238 106.91 55.0321 103.989C55.0321 103.836 54.8937 103.798 54.8974 103.955C55.0321 109.158 55.4622 114.304 55.7389 119.503C56.0157 124.702 56.2813 125.914 56.5767 131.097C56.7413 134.03 56.8872 136.962 57.1153 139.89C57.1178 139.898 57.1225 139.904 57.1289 139.909C57.1353 139.914 57.143 139.916 57.1508 139.916C57.1587 139.916 57.1664 139.914 57.1728 139.909C57.1791 139.904 57.1839 139.898 57.1864 139.89C57.1976 134.684 56.9919 133.424 56.7637 128.225Z" fill="#263238"/>
<path d="M72.5918 100.211C72.4287 98.8433 72.1637 97.4894 71.7989 96.1608C71.4062 94.8731 70.8888 93.6268 70.2543 92.4394C68.9565 89.9485 67.4791 87.5399 66.0541 85.12C64.6292 82.7002 63.1443 80.228 61.6408 77.8118C60.7955 76.4554 59.9465 75.1003 59.0938 73.7463C58.2261 72.3812 57.3098 71.0422 56.4159 69.6958C56.4089 69.6844 56.3977 69.6762 56.3848 69.6731C56.3718 69.6699 56.3581 69.672 56.3467 69.679C56.3353 69.6859 56.3271 69.6971 56.3239 69.7101C56.3208 69.7231 56.3229 69.7368 56.3298 69.7482C57.7885 72.1942 59.2322 74.644 60.6908 77.09C62.1495 79.536 63.5857 81.9895 65.0219 84.4431C66.4581 86.8966 67.8531 89.2753 69.2071 91.7288C69.8737 92.8937 70.4477 94.1093 70.9238 95.3642C71.3665 96.6645 71.6883 98.0029 71.885 99.3624C72.3936 102.53 72.8088 105.721 73.4446 108.859C73.4471 108.866 73.4518 108.873 73.4582 108.877C73.4646 108.882 73.4722 108.884 73.4801 108.884C73.488 108.884 73.4957 108.882 73.5021 108.877C73.5084 108.873 73.5132 108.866 73.5157 108.859C73.3174 105.971 72.9733 103.08 72.5918 100.211Z" fill="#263238"/>
<path d="M74.6339 139.834C73.5455 139.692 65.2387 139.404 58.2896 139.703C58.2447 139.703 58.2485 139.77 58.2896 139.774C60.5524 139.972 73.3473 140.062 74.6227 139.913C74.6563 139.909 74.6713 139.842 74.6339 139.834Z" fill="#263238"/>
<path d="M58.8955 68.5663C56.9528 69.2741 55.0757 70.1502 53.2854 71.1844C53.27 71.1914 53.258 71.2041 53.252 71.2199C53.2461 71.2357 53.2466 71.2532 53.2536 71.2686C53.2605 71.2839 53.2733 71.2959 53.2891 71.3019C53.3048 71.3079 53.3223 71.3073 53.3377 71.3004C55.2302 70.485 57.1638 69.7071 59.0115 68.7907C59.0412 68.7754 59.0636 68.7488 59.0738 68.7169C59.084 68.685 59.0811 68.6503 59.0657 68.6206C59.0503 68.5908 59.0238 68.5684 58.9918 68.5582C58.9599 68.548 58.9253 68.551 58.8955 68.5663Z" fill="#263238"/>
<path d="M59.4677 55.603C59.4677 55.5394 59.3481 55.5245 59.3481 55.603C59.3484 57.7164 59.2423 59.8285 59.0301 61.9313C58.9404 62.9074 58.155 68.2895 56.4644 67.9154C56.1802 67.8481 56.0381 67.5714 55.9932 67.1412C55.9979 66.5829 56.0733 66.0275 56.2176 65.4881C56.4046 64.3661 56.5542 63.244 56.6514 62.0884C56.8497 59.9649 56.8272 57.8266 56.5841 55.7077C56.5809 55.6958 56.5739 55.6852 56.5641 55.6776C56.5543 55.6701 56.5423 55.666 56.5299 55.666C56.5175 55.666 56.5055 55.6701 56.4957 55.6776C56.4859 55.6852 56.4788 55.6958 56.4757 55.7077C56.5246 58.6513 56.3521 61.5943 55.9595 64.512C55.7463 65.9145 55.0394 68.0277 56.5093 68.2521C57.9792 68.4765 58.9703 64.9346 59.1498 63.9659C59.6177 61.2038 59.7245 58.3926 59.4677 55.603Z" fill="#263238"/>
<path d="M56.5093 68.0315C56.3595 68.3967 56.2345 68.7716 56.1353 69.1536C56.0277 69.4469 55.9744 69.7575 55.9782 70.0699C55.98 70.0827 55.9857 70.0946 55.9944 70.1041C56.0032 70.1135 56.0146 70.1201 56.0272 70.123C56.0397 70.1258 56.0529 70.1248 56.0648 70.12C56.0768 70.1152 56.087 70.1068 56.0942 70.0961C56.2708 69.8204 56.4033 69.5188 56.4869 69.2022C56.6178 68.8544 56.7524 68.514 56.8609 68.1625C56.8782 68.1158 56.8764 68.0642 56.8557 68.019C56.835 67.9737 56.7972 67.9386 56.7506 67.9212C56.7039 67.9039 56.6523 67.9057 56.6071 67.9264C56.5618 67.9471 56.5267 67.9849 56.5093 68.0315Z" fill="#263238"/>
<path d="M57.306 106.555C57.1265 103.892 57.1377 101.083 56.0044 98.6145C55.4025 97.4116 54.7098 96.2563 53.9324 95.1586C53.1595 93.9767 52.3965 92.7886 51.6435 91.5943C48.6514 86.8181 45.764 81.9448 43.1347 76.9517C41.8668 74.5468 40.6999 72.0634 40.0641 69.4079C39.4441 66.6135 39.3263 63.7311 39.7163 60.8954C39.806 60.1886 39.9033 59.4854 40.0192 58.7823C40.0196 58.7727 40.0167 58.7634 40.0109 58.7558C40.0051 58.7482 39.9969 58.7428 39.9876 58.7406C39.9784 58.7384 39.9686 58.7395 39.96 58.7437C39.9515 58.7479 39.9446 58.7549 39.9407 58.7636C39.3253 61.4601 39.1148 64.2333 39.3161 66.9918C39.6039 69.6292 40.3467 72.1968 41.5115 74.5805C42.671 77.0901 44.0511 79.5062 45.4125 81.9111C46.8162 84.4045 48.2612 86.8618 49.7472 89.2829C51.2433 91.699 52.7842 94.0665 54.3289 96.4452C55.1168 97.5671 55.7308 98.8015 56.1503 100.107C56.4904 101.469 56.686 102.863 56.7338 104.266C57.1078 110.153 58.6038 129.725 59.1349 135.582C59.1985 136.33 59.2658 137.078 59.3369 137.826C59.3348 137.834 59.3344 137.842 59.336 137.85C59.3375 137.858 59.3408 137.865 59.3457 137.871C59.3506 137.878 59.3569 137.883 59.3641 137.887C59.3714 137.89 59.3793 137.892 59.3874 137.892C59.3954 137.892 59.4034 137.89 59.4106 137.887C59.4178 137.883 59.4241 137.878 59.429 137.871C59.4339 137.865 59.4372 137.858 59.4388 137.85C59.4403 137.842 59.44 137.834 59.4379 137.826C59.2135 131.946 57.6912 112.423 57.306 106.555Z" fill="#263238"/>
<path d="M48.154 58.5204C48.154 58.4793 48.0867 58.4942 48.0867 58.5204C48.0306 60.1549 48.0867 61.8454 47.4471 63.3826C46.8711 64.8001 45.7117 65.7949 44.4139 66.5392C43.6591 66.9627 42.8812 67.3436 42.0838 67.68C42.0277 67.7061 42.0501 67.7959 42.1137 67.7772C43.6097 67.2985 45.1544 66.7786 46.4073 65.7762C47.7463 64.6991 48.3335 63.1395 48.3971 61.4564C48.42 60.4719 48.3385 59.4877 48.154 58.5204Z" fill="#263238"/>
<path d="M56.4532 31.8794C58.5925 38.447 64.371 49.6337 66.4355 50.9839C68.2645 52.177 76.8704 50.8455 80.648 49.9367C82.0542 49.5963 78.8901 38.8772 77.3903 39.2699C75.5913 39.7411 70.2318 40.9492 69.8428 40.65C69.4538 40.3508 64.0494 33.6934 60.2195 29.7737C56.7337 26.2244 55.6453 29.396 56.4532 31.8794Z" fill="#D3766A"/>
<path d="M79.8215 50.0189C80.5433 49.9291 86.6509 49.6449 89.4523 48.1226C90.9483 47.311 94.767 44.6256 94.3855 43.6607C94.0377 42.7818 92.8109 43.2605 92.8109 43.2605C92.8109 43.2605 94.4977 42.0375 94.004 40.8182C93.5103 39.5989 91.4719 40.5153 91.4719 40.5153C91.4719 40.5153 93.1138 39.1314 92.5341 37.9533C91.9544 36.7751 90.0619 38.0356 90.0619 38.0356C90.0619 38.0356 91.6215 36.8425 90.7351 36.072C89.6655 35.1445 87.0362 37.6728 85.2596 38.2637C84.8557 38.3983 76.8967 40.4105 76.8967 40.4105L79.8215 50.0189Z" fill="#D3766A"/>
<path d="M89.9946 38.0022C88.0572 39.8536 86.8865 40.3286 84.2984 40.8522C84.2498 40.8522 84.2535 40.942 84.2984 40.9345C86.8791 40.654 88.4312 40.2687 90.0806 38.092C90.1704 37.9835 90.0843 37.9125 89.9946 38.0022Z" fill="#263238"/>
<path d="M91.4082 40.4706C89.2278 42.221 87.9636 42.7446 85.2932 43.4926C85.2558 43.4926 85.2707 43.5712 85.3119 43.5637C87.9898 43.0476 89.5307 42.6287 91.4793 40.5941C91.5691 40.5043 91.5092 40.3921 91.4082 40.4706Z" fill="#263238"/>
<path d="M92.68 43.2906C90.4359 44.8315 89.0857 45.4711 86.4003 45.8638C86.3874 45.8638 86.375 45.8689 86.3659 45.878C86.3568 45.8871 86.3517 45.8995 86.3517 45.9124C86.3517 45.9253 86.3568 45.9377 86.3659 45.9468C86.375 45.9559 86.3874 45.961 86.4003 45.961C89.1792 45.8264 90.8884 45.0447 92.7099 43.3654C92.8445 43.2606 92.8183 43.1971 92.68 43.2906Z" fill="#263238"/>
<path d="M74.8097 40.7549C74.8097 40.7549 77.0351 38.2378 78.2543 37.3477C79.4736 36.4575 85.2483 34.8119 85.6747 36.0386C86.2245 37.6244 83.0791 39.2289 81.4372 39.8124C81.4372 39.8124 82.7125 43.4777 80.6891 45.1159C78.6657 46.7541 74.8097 40.7549 74.8097 40.7549Z" fill="#D3766A"/>
<path d="M85.686 36.5286C85.1436 38.335 82.937 38.9634 81.3848 39.6478C81.3619 39.6577 81.3415 39.6729 81.3254 39.692C81.3094 39.7112 81.2979 39.7338 81.2921 39.7581C81.2863 39.7824 81.2863 39.8078 81.292 39.8321C81.2977 39.8565 81.309 39.8792 81.325 39.8984C81.7589 41.4692 81.9085 43.8106 80.8089 45.1346C80.7789 45.172 80.8276 45.2243 80.865 45.1907C82.2376 43.934 82.275 41.6189 81.6915 39.9283C83.296 39.2514 85.4803 38.522 85.7009 36.536C85.7047 36.5286 85.6897 36.5286 85.686 36.5286Z" fill="#263238"/>
<path d="M79.8177 51.8629L76.9976 39.0194L70.0186 40.2873C67.2658 37.1344 61.7641 30.8323 59.5463 28.9398C56.9282 26.7182 55.2152 28.3863 56.1802 31.7524C58.3606 39.4458 64.7375 50.7409 66.4056 51.8068C68.8255 53.359 79.8177 51.8629 79.8177 51.8629Z" fill="#278AFF"/>
<path opacity="0.1" d="M69.854 44.1956C70.1995 44.2708 70.5515 44.3121 70.905 44.3191C71.653 44.42 71.9821 45.5234 71.3014 45.9423C70.944 46.1624 70.5399 46.2958 70.1216 46.3315C69.7033 46.3672 69.2824 46.3044 68.8928 46.148C68.1448 45.8562 67.5127 45.1307 67.6735 44.2779C67.7014 44.119 67.7699 43.9699 67.8724 43.8453C67.9749 43.7206 68.108 43.6246 68.2586 43.5667C68.4092 43.5087 68.5723 43.4907 68.7319 43.5144C68.8915 43.5381 69.0423 43.6027 69.1696 43.7019C69.3768 43.8937 69.6067 44.0595 69.854 44.1956ZM67.9241 41.14C67.6548 42.4116 69.6221 43.5037 70.6282 42.8268C70.7093 42.7653 70.7755 42.6864 70.8219 42.5959C70.8683 42.5054 70.8937 42.4055 70.8963 42.3038C70.8988 42.2021 70.8783 42.1012 70.8365 42.0085C70.7946 41.9157 70.7324 41.8337 70.6544 41.7683C70.3589 41.5289 70.1121 41.4915 69.8503 41.2746C69.7587 41.2031 69.6781 41.1187 69.6109 41.024C69.4626 40.8195 69.2726 40.6487 69.0536 40.5228C68.9397 40.4742 68.8162 40.452 68.6924 40.4579C68.5686 40.4639 68.4478 40.4979 68.3391 40.5573C68.2304 40.6167 68.1365 40.7 68.0646 40.8009C67.9927 40.9019 67.9447 41.0178 67.9241 41.14ZM64.7862 41.2073C64.3822 41.7346 64.6852 42.5276 65.0405 43.0063C65.2004 43.2447 65.4207 43.4364 65.679 43.5619C65.9372 43.6874 66.2241 43.7422 66.5104 43.7206C66.6147 43.706 66.7125 43.6614 66.7921 43.5924C66.8717 43.5233 66.9296 43.4328 66.9588 43.3316C66.9881 43.2303 66.9875 43.1228 66.957 43.022C66.9265 42.9211 66.8675 42.8313 66.7871 42.7632C66.5622 42.5921 66.3825 42.3687 66.2635 42.1124C66.0877 41.7159 65.9718 41.2035 65.5155 41.0315C65.3909 40.9803 65.2533 40.9697 65.1223 41.0012C64.9914 41.0328 64.8737 41.1049 64.7862 41.2073ZM73.0705 49.5253C72.5432 50.5912 74.1477 51.803 75.1201 51.5936C75.4455 51.5225 75.7596 51.0961 75.4717 50.7895C75.2398 50.5426 74.963 50.3481 74.7461 50.0863C74.4805 49.7684 74.3347 49.3607 73.9195 49.1999C73.7633 49.1345 73.5879 49.1319 73.4298 49.1925C73.2717 49.2531 73.143 49.3723 73.0705 49.5253ZM58.0053 36.4536C57.9133 36.2785 57.786 36.1244 57.6313 36.0011C57.8408 36.5371 58.0614 37.0745 58.2933 37.613C58.3058 37.2074 58.2061 36.8063 58.0053 36.4536ZM60.0886 35.3316C60.0153 34.4077 59.6543 33.53 59.0563 32.822C58.6075 32.2422 57.8296 31.3259 57.0067 31.5241C56.9193 31.5515 56.8429 31.6062 56.789 31.6803C56.7352 31.7544 56.7066 31.8439 56.7075 31.9356C56.6552 32.5676 57.3807 33.2446 57.6949 33.7495C58.0689 34.3853 58.3644 35.0885 58.7683 35.7205C58.8528 35.8505 58.977 35.9496 59.1224 36.0032C59.2678 36.0567 59.4267 36.0618 59.5752 36.0176C59.7238 35.9734 59.854 35.8824 59.9465 35.758C60.0391 35.6337 60.0889 35.4828 60.0886 35.3278V35.3316ZM59.8455 39.3522C59.9916 39.3446 60.1315 39.2904 60.2446 39.1975C60.3577 39.1047 60.438 38.978 60.4738 38.8361C60.5319 38.5457 60.5126 38.2451 60.4177 37.9646C60.3618 37.6975 60.2322 37.4513 60.0437 37.254C59.9762 37.1915 59.8936 37.1477 59.804 37.1267C59.7145 37.1057 59.621 37.1084 59.5328 37.1344C59.4446 37.1604 59.3646 37.2089 59.3008 37.2751C59.2369 37.3413 59.1913 37.423 59.1685 37.5121C59.1386 37.7305 59.1386 37.9519 59.1685 38.1703C59.1685 38.2638 59.1685 38.3573 59.1685 38.4546C59.1666 38.5955 59.1817 38.7361 59.2134 38.8735C59.2536 39.0101 59.3369 39.1301 59.4507 39.2157C59.5646 39.3013 59.703 39.3478 59.8455 39.3485V39.3522Z" fill="#030402"/>
<path d="M77.3753 50.741C77.0537 49.993 76.2533 46.6718 76.0775 45.8452C75.9017 45.0186 75.2509 41.675 75.0602 40.826C75.0602 40.7774 75.1125 40.7512 75.1238 40.7961C75.3257 41.6338 76.2271 44.9326 76.4253 45.7554C76.6235 46.5783 77.3678 49.8957 77.4202 50.7298C77.4209 50.7327 77.4211 50.7358 77.4206 50.7388C77.4202 50.7418 77.4191 50.7447 77.4176 50.7473C77.4144 50.7526 77.4093 50.7564 77.4034 50.7578C77.3974 50.7593 77.3911 50.7584 77.3859 50.7552C77.3806 50.7521 77.3768 50.747 77.3753 50.741Z" fill="#263238"/>
<path opacity="0.1" d="M70.8938 52.5061C68.9302 52.5061 67.206 52.3191 66.4056 51.8067C64.7263 50.7221 58.3494 39.4644 56.154 31.756C55.6005 29.8261 55.9333 28.4498 56.8085 28.0496L70.8938 52.5061Z" fill="black"/>
<path d="M39.245 55.1204C39.2936 55.1914 62.6319 58.1835 62.8825 57.9666C63.0145 57.3169 63.1081 56.66 63.163 55.9993C63.163 55.9993 61.0237 30.589 59.9166 29.0967C58.9479 27.7951 56.0082 26.8526 54.0072 27.7016C49.8071 29.4819 39.7499 52.1844 39.8584 53.1344C39.8509 53.1232 39.1852 55.0306 39.245 55.1204Z" fill="#278AFF"/>
<path opacity="0.1" d="M47.6601 52.0276C48.0201 52.2024 48.3958 52.3427 48.7822 52.4465C49.5601 52.7569 49.6312 54.0548 48.7822 54.3166C48.3309 54.4598 47.8523 54.4954 47.3847 54.4208C46.9172 54.3461 46.4736 54.1631 46.0893 53.8864C45.3413 53.3628 44.8588 52.3904 45.2627 51.5227C45.3369 51.3576 45.4522 51.2143 45.5977 51.1067C45.7432 50.9991 45.914 50.9307 46.0936 50.9082C46.2731 50.8856 46.4555 50.9097 46.6231 50.978C46.7907 51.0463 46.9379 51.1566 47.0505 51.2983C47.26 51.5414 47.3871 51.863 47.6601 52.0276ZM46.381 48.1641C45.7415 49.4843 47.5928 51.2085 48.8757 50.741C48.9831 50.698 49.0792 50.6307 49.1562 50.5444C49.2332 50.458 49.2892 50.3549 49.3196 50.2433C49.3501 50.1316 49.3542 50.0144 49.3317 49.9009C49.3092 49.7874 49.2606 49.6806 49.1898 49.5891C48.9355 49.2487 48.6737 49.1402 48.4418 48.841C48.3618 48.7376 48.2975 48.6229 48.2511 48.5007C48.1405 48.2396 47.979 48.0031 47.7761 47.805C47.331 47.3749 46.6167 47.6779 46.381 48.1641ZM44.2192 46.7578C43.5198 47.0196 43.3403 47.9621 43.3927 48.6279C43.4034 48.9513 43.4998 49.266 43.672 49.54C43.8441 49.814 44.0859 50.0374 44.3726 50.1875C44.4808 50.2358 44.6007 50.2518 44.7178 50.2334C44.8348 50.2151 44.9441 50.1632 45.0323 50.0841C45.1205 50.005 45.1839 49.902 45.2149 49.7876C45.2458 49.6732 45.243 49.5523 45.2066 49.4395C45.0879 49.1404 45.0467 48.8162 45.0869 48.4969C45.1505 48.0182 45.3413 47.4572 45.0234 47.0271C44.9349 46.9031 44.8094 46.8103 44.665 46.7619C44.5206 46.7135 44.3645 46.7121 44.2192 46.7578ZM51.8865 51.2085C51.7094 51.1934 51.5333 51.2465 51.3942 51.3571C51.2551 51.4677 51.1636 51.6273 51.1384 51.8032C51.1193 51.9922 51.1667 52.1819 51.2726 52.3397C51.3784 52.4974 51.536 52.6132 51.7182 52.6672C51.9732 52.7514 52.2485 52.7514 52.5036 52.6672C52.6341 52.6156 52.7417 52.5186 52.8065 52.3941C52.8816 52.2737 52.9121 52.1308 52.8926 51.9902C52.8719 51.8591 52.8118 51.7373 52.7202 51.6411C52.6287 51.5449 52.5101 51.4788 52.3802 51.4516C52.3566 51.4206 52.3289 51.3929 52.2979 51.3694C52.1792 51.2771 52.0363 51.2213 51.8865 51.2085ZM46.1529 42.1836C45.5245 42.8269 45.7789 44.2893 46.497 44.783C46.5894 44.8533 46.6987 44.8982 46.8138 44.9132C46.929 44.9282 47.0461 44.9128 47.1535 44.8686C47.2608 44.8243 47.3548 44.7528 47.4259 44.661C47.4971 44.5692 47.543 44.4604 47.5592 44.3454C47.5702 44.1973 47.5702 44.0485 47.5592 43.9004C47.5592 43.7395 47.5367 43.6385 47.5592 43.5263C47.6151 43.2066 47.6264 42.8806 47.5928 42.5576C47.5638 42.4045 47.4918 42.2628 47.3853 42.1489C47.2788 42.0351 47.1422 41.9539 46.9913 41.9147C46.8404 41.8755 46.6815 41.88 46.5331 41.9276C46.3846 41.9752 46.2528 42.064 46.1529 42.1836ZM42.0949 51.489C41.2309 52.5138 42.6559 54.2717 43.7742 54.3053C44.1482 54.3053 44.6082 53.9313 44.3763 53.5199C44.1893 53.1908 43.9387 52.8991 43.7742 52.5587C43.5722 52.1398 43.5236 51.6499 43.1122 51.3656C42.9587 51.2528 42.7681 51.2028 42.5791 51.2258C42.39 51.2487 42.2169 51.3428 42.0949 51.489ZM62.729 51.1636C62.5883 51.1847 62.4569 51.2472 62.3517 51.3431C62.2465 51.439 62.1721 51.564 62.1381 51.7022C62.0184 52.1174 62.0035 52.4876 61.693 52.8243C61.3571 53.0886 61.0555 53.3939 60.7954 53.7331C60.752 53.8178 60.7313 53.9123 60.7354 54.0074C60.7395 54.1025 60.7682 54.1949 60.8187 54.2756C60.8692 54.3563 60.9398 54.4224 61.0236 54.4677C61.1074 54.5129 61.2014 54.5355 61.2966 54.5335C61.9497 54.4532 62.5476 54.1268 62.9684 53.6209C62.8936 52.9103 62.8188 52.0762 62.7328 51.1487L62.729 51.1636ZM60.859 48.0781C60.6495 48.5867 60.687 49.1627 60.5112 49.6938C60.3569 50.1807 60.1733 50.6578 59.9614 51.1225C59.8043 51.4591 60.1185 51.9902 60.5261 51.8107C61.1891 51.5562 61.7315 51.0605 62.0446 50.4231C62.3289 49.8359 62.643 48.8485 62.37 48.2239C62.097 47.5993 61.1694 47.3263 60.8515 48.0631L60.859 48.0781ZM58.7271 53.1758C58.4163 53.5774 58.0187 53.9035 57.564 54.1296C57.4556 54.1632 57.3556 54.2195 57.2707 54.2947C57.1858 54.3699 57.1178 54.4622 57.0712 54.5657C57.0247 54.6692 57.0007 54.7814 57.0008 54.8948C57.0009 55.0083 57.0252 55.1204 57.0719 55.2237C57.1187 55.3271 57.1869 55.4194 57.272 55.4944C57.3571 55.5694 57.4571 55.6255 57.5656 55.6589C57.674 55.6923 57.7883 55.7022 57.9008 55.6881C58.0134 55.674 58.1217 55.6361 58.2185 55.577C58.6055 55.4111 58.9514 55.1623 59.2318 54.8483C59.5123 54.5342 59.7204 54.1625 59.8417 53.7593C60.0175 53.1122 59.1423 52.6896 58.7196 53.1609L58.7271 53.1758ZM55.3087 34.8493C55.5176 34.8935 55.7356 34.8551 55.9169 34.7422C56.0982 34.6292 56.2287 34.4505 56.2811 34.2434C56.4905 33.4393 55.7724 32.6127 55.2039 32.1115C54.6355 31.6103 53.8351 31.1541 53.0384 31.4121C52.9324 31.4465 52.8368 31.5074 52.7609 31.589C52.685 31.6707 52.6312 31.7703 52.6046 31.8786C52.578 31.9869 52.5795 32.1001 52.6089 32.2077C52.6384 32.3152 52.6948 32.4134 52.7729 32.493C53.1207 32.9269 53.6032 33.241 53.9734 33.6674C54.3437 34.0938 54.6504 34.7259 55.3012 34.8343L55.3087 34.8493ZM58.1773 38.0246C58.4915 37.5721 58.2484 36.9026 58.024 36.4725C57.9045 36.2352 57.7187 36.0377 57.4892 35.904C57.3347 35.8051 57.1474 35.7713 56.9681 35.8098C56.7888 35.8483 56.6319 35.9561 56.5317 36.1097C56.4297 36.3224 56.4136 36.5662 56.4868 36.7904C56.518 36.9077 56.5606 37.0217 56.614 37.1308V37.1644V37.1943C56.6808 37.5515 56.8321 37.8875 57.0553 38.1742C57.1325 38.252 57.2267 38.3109 57.3305 38.3462C57.4343 38.3815 57.5448 38.3924 57.6534 38.3779C57.7621 38.3634 57.8659 38.324 57.9568 38.2627C58.0477 38.2014 58.1232 38.1199 58.1773 38.0246ZM60.1072 35.3467C60.034 34.4228 59.673 33.5451 59.075 32.8371C58.6261 32.2574 57.8482 31.3411 57.0254 31.5393C56.9379 31.5666 56.8616 31.6214 56.8077 31.6955C56.7538 31.7696 56.7252 31.8591 56.7262 31.9507C56.6738 32.5828 57.3994 33.2597 57.7136 33.7647C58.0876 34.4005 58.383 35.1036 58.787 35.7357C58.875 35.8585 58.9996 35.9504 59.1429 35.9983C59.2862 36.0461 59.441 36.0476 59.5851 36.0025C59.7293 35.9573 59.8556 35.8678 59.946 35.7467C60.0364 35.6256 60.0863 35.4791 60.0885 35.328L60.1072 35.3467ZM57.2834 41.7498C57.4202 41.7797 57.5618 41.7797 57.6986 41.7498C57.9059 41.686 58.0811 41.5455 58.1886 41.3571C58.2891 41.1565 58.3391 40.9344 58.3344 40.71C58.3276 40.4975 58.2699 40.2897 58.1661 40.1041L58.0427 39.9508L57.8781 39.8311C57.7752 39.778 57.6616 39.7488 57.5458 39.7457C57.43 39.7425 57.315 39.7655 57.2094 39.813C57.1037 39.8604 57.0101 39.9311 56.9355 40.0197C56.8609 40.1083 56.8073 40.2126 56.7785 40.3248C56.7163 40.5426 56.6725 40.7653 56.6476 40.9905L56.6813 41.1962C56.7075 41.2995 56.7589 41.3946 56.8309 41.473C56.9439 41.6036 57.0961 41.6941 57.2647 41.7311L57.2834 41.7498ZM59.8641 39.3673C60.0103 39.3598 60.1502 39.3056 60.2633 39.2127C60.3763 39.1198 60.4567 38.9931 60.4925 38.8512C60.5506 38.5608 60.5312 38.2603 60.4364 37.9798C60.3804 37.7126 60.2509 37.4665 60.0623 37.2691C59.9948 37.2067 59.9123 37.1628 59.8227 37.1418C59.7331 37.1209 59.6397 37.1235 59.5514 37.1495C59.4632 37.1756 59.3833 37.224 59.3194 37.2902C59.2556 37.3564 59.21 37.4381 59.1872 37.5272C59.1572 37.7456 59.1572 37.9671 59.1872 38.1855C59.1872 38.279 59.1872 38.3725 59.1872 38.4697C59.1852 38.6106 59.2003 38.7513 59.232 38.8886C59.2739 39.0194 59.3554 39.134 59.4654 39.2165C59.5753 39.2989 59.7081 39.3451 59.8454 39.3486L59.8641 39.3673Z" fill="#030402"/>
<path d="M58.5514 33.08C57.1264 32.9491 55.3012 29.9046 54.9534 27.971C54.931 27.8363 55.4995 26.7106 56.1241 25.3118C56.4981 24.4628 56.902 23.5053 57.2012 22.6077L62.3775 25.8653C61.6791 26.8814 61.1076 27.9792 60.6758 29.1342C60.6371 29.2561 60.6096 29.3813 60.5935 29.5082C60.5948 29.5293 60.5948 29.5506 60.5935 29.5718C60.4626 30.3198 59.9315 33.2071 58.5514 33.08Z" fill="#D3766A"/>
<path d="M60.5935 29.5159C60.5947 29.5371 60.5947 29.5583 60.5935 29.5795C60.3941 29.5405 60.1978 29.4867 60.0063 29.4187C56.7674 28.2518 57.3396 24.003 57.5677 22.8286L58.8581 23.644L62.3925 25.888C61.6943 26.9038 61.124 28.0016 60.6945 29.1569C60.65 29.2732 60.6162 29.3934 60.5935 29.5159Z" fill="#263238"/>
<path d="M57.7435 16.6124C56.6738 18.5386 56.4868 24.7247 57.6725 26.3666C59.3854 28.7453 62.8263 29.6729 65.0068 27.4886C67.12 25.3493 67.2172 17.2819 65.8409 15.726C63.8062 13.4146 59.3218 13.7662 57.7435 16.6124Z" fill="#D3766A"/>
<path d="M62.7103 21.6128C62.7103 21.6128 62.6767 21.6128 62.6767 21.6502C62.6767 22.0766 62.6019 22.5628 62.2129 22.6899V22.7161C62.6879 22.6638 62.7776 22.0167 62.7103 21.6128Z" fill="#263238"/>
<path d="M62.3477 21.1565C61.6632 21.0817 61.5622 22.4506 62.1943 22.5217C62.8264 22.5927 62.9199 21.2201 62.3477 21.1565Z" fill="#263238"/>
<path d="M65.1638 21.759C65.1638 21.759 65.1938 21.7815 65.1938 21.8002C65.1451 22.2228 65.1638 22.7165 65.5341 22.8848C65.5341 22.8848 65.5341 22.9147 65.5341 22.911C65.0666 22.8063 65.0516 22.1517 65.1638 21.759Z" fill="#263238"/>
<path d="M65.579 21.3474C66.2635 21.3474 66.2074 22.72 65.579 22.72C64.9507 22.72 65.0031 21.3437 65.579 21.3474Z" fill="#263238"/>
<path d="M62.9013 20.8798C62.7105 20.9209 62.5273 20.9246 62.3402 20.9471C62.1465 20.9978 61.9415 20.9833 61.7568 20.906C61.703 20.8705 61.6625 20.8183 61.6415 20.7574C61.6205 20.6965 61.6203 20.6304 61.6408 20.5693C61.7022 20.4578 61.7919 20.3644 61.9009 20.2988C62.01 20.2331 62.1344 20.1974 62.2617 20.1953C62.52 20.1457 62.7876 20.1965 63.0097 20.3375C63.0559 20.3722 63.0914 20.4193 63.112 20.4733C63.1326 20.5273 63.1375 20.5861 63.1262 20.6427C63.1148 20.6994 63.0877 20.7518 63.0479 20.7937C63.0081 20.8356 62.9573 20.8655 62.9013 20.8798Z" fill="#263238"/>
<path d="M66.1924 20.0721C66.0108 20.0211 65.8323 19.96 65.6576 19.8888C65.4609 19.8517 65.282 19.7504 65.1489 19.6008C65.1157 19.546 65.1017 19.4817 65.1091 19.418C65.1166 19.3543 65.1451 19.2949 65.1901 19.2493C65.2923 19.1712 65.4137 19.1223 65.5415 19.1078C65.6693 19.0933 65.7986 19.1138 65.9157 19.167C66.1683 19.2361 66.3867 19.3959 66.529 19.6158C66.5586 19.668 66.5725 19.7276 66.5689 19.7875C66.5653 19.8474 66.5444 19.9049 66.5088 19.9532C66.4732 20.0014 66.4244 20.0383 66.3682 20.0595C66.3121 20.0806 66.251 20.0849 66.1924 20.0721Z" fill="#263238"/>
<path d="M62.3999 24.9868C62.9507 24.8549 63.5247 24.8549 64.0755 24.9868C64.1241 24.9868 64.1727 24.8895 64.1839 24.8446L64.2139 23.947C64.3298 24.0143 64.9133 24.321 64.9133 24.1564C64.9742 22.6975 64.8852 21.2362 64.6477 19.7955C64.6451 19.7871 64.6399 19.7798 64.6328 19.7746C64.6258 19.7694 64.6172 19.7666 64.6085 19.7666C64.5997 19.7666 64.5911 19.7694 64.5841 19.7746C64.577 19.7798 64.5718 19.7871 64.5692 19.7955C64.5093 21.1457 64.6814 22.4921 64.6402 23.8498C64.4338 23.7354 64.2122 23.651 63.982 23.5992C63.9334 23.5992 63.982 24.5529 63.982 24.695C63.4672 24.5177 62.9035 24.5486 62.4111 24.781C62.2167 24.9045 62.1381 25.069 62.3999 24.9868Z" fill="#263238"/>
<path d="M61.2929 25.8767C61.3864 25.9815 61.4799 26.1236 61.6295 26.146C61.7868 26.1535 61.9437 26.1267 62.0896 26.0675C62.0896 26.0675 62.1157 26.0675 62.0896 26.0899C62.0251 26.1693 61.9401 26.2294 61.8438 26.2638C61.7475 26.2981 61.6436 26.3052 61.5435 26.2844C61.4618 26.2583 61.3893 26.2091 61.3349 26.1427C61.2805 26.0763 61.2464 25.9957 61.2368 25.9104C61.2443 25.8693 61.278 25.8618 61.2929 25.8767Z" fill="#263238"/>
<path opacity="0.2" d="M59.55 14.6487C59.4939 15.6099 59.2657 18.5908 58.802 19.1967C58.3382 19.8026 57.3583 21.2126 56.8608 21.4407C56.9282 19.4547 57.2349 17.566 57.7472 16.5786C58.1673 15.7875 58.7893 15.1216 59.55 14.6487Z" fill="#263238"/>
<path d="M64.8797 17.5625C64.6182 17.8287 64.2929 18.0235 63.9347 18.1282C63.5766 18.233 63.1976 18.2442 62.8338 18.1609C62.4616 18.0781 62.117 17.9007 61.8333 17.6458C61.5496 17.391 61.3365 17.0673 61.2144 16.706C61.2144 16.6836 61.1732 16.706 61.1807 16.706C61.2758 17.0961 61.476 17.4526 61.7595 17.7368C62.0431 18.021 62.3991 18.222 62.789 18.318C63.1781 18.3923 63.5801 18.3622 63.9538 18.2308C64.3276 18.0994 64.66 17.8714 64.9171 17.57C64.9395 17.5737 64.9096 17.5401 64.8797 17.5625Z" fill="#263238"/>
<path d="M63.0022 12.0195C62.4274 11.9807 61.8521 12.087 61.3292 12.3289C60.8063 12.5707 60.3527 12.9402 60.0101 13.4034C59.7182 13.8748 59.5943 14.431 59.6585 14.9817H59.7071C59.7142 14.4985 59.8518 14.0262 60.1053 13.6147C60.3587 13.2032 60.7187 12.8679 61.1471 12.6441C61.6153 12.382 62.1378 12.2318 62.6738 12.2052C63.2097 12.1786 63.7445 12.2763 64.2364 12.4908C64.7202 12.6903 65.1177 13.0547 65.3584 13.5193C65.3809 13.568 65.4781 13.5455 65.4594 13.4969C65.1527 12.6815 64.1616 12.0756 63.0022 12.0195Z" fill="#263238"/>
<path d="M70.1458 15.281C69.9831 14.6478 69.6015 14.0926 69.0686 13.7139C68.3206 13.179 67.4454 13.1865 66.5703 13.2164C66.5441 13.2164 66.5478 13.2538 66.5703 13.2501C67.3144 13.1724 68.0651 13.3114 68.732 13.6503C69.2749 13.9761 69.6885 14.4795 69.9027 15.0753C70.1065 15.6863 70.0829 16.3504 69.8362 16.9455C69.5896 17.5405 69.1364 18.0266 68.56 18.3142C68.2245 18.4719 67.8603 18.5592 67.4898 18.5708C67.1193 18.5823 66.7504 18.5179 66.4057 18.3815C66.3795 18.3815 66.3571 18.4077 66.3833 18.4227C66.8496 18.6287 67.3643 18.7001 67.8691 18.6291C68.374 18.558 68.8489 18.3471 69.2403 18.0204C69.6316 17.6936 69.9238 17.2639 70.0838 16.7798C70.2438 16.2958 70.2653 15.7766 70.1458 15.281Z" fill="#263238"/>
<path d="M57.3696 17.828C57.3696 17.828 56.3373 15.4755 57.4406 14.2413C58.0652 13.5456 59.9428 13.785 59.9428 13.785C60.5036 13.073 61.3243 12.6129 62.2243 12.5058C63.8288 12.2553 65.6577 13.3399 65.6577 13.3399C65.6577 13.3399 67.221 12.5919 68.5637 13.5007C70.4338 14.7686 69.9663 17.7345 67.9242 18.5424C66.488 19.1146 64.7002 17.7457 64.7002 17.7457C64.5207 17.7457 62.5833 18.7331 61.3079 16.9753C61.3079 16.9753 60.0961 17.8991 59.1274 17.1137C58.9432 17.3988 58.6757 17.6203 58.3612 17.7482C58.0467 17.876 57.7005 17.9038 57.3696 17.828Z" fill="#263238"/>
<path d="M57.9791 21.7365C57.9791 21.7365 56.9992 19.541 56.0305 19.8664C55.0618 20.1918 55.5331 23.1764 56.4906 23.7599C56.6072 23.841 56.739 23.8979 56.8781 23.9272C57.0172 23.9565 57.1608 23.9575 57.3003 23.9303C57.4398 23.9031 57.5724 23.8482 57.6903 23.7688C57.8082 23.6894 57.9089 23.5872 57.9866 23.4681L57.9791 21.7365Z" fill="#D3766A"/>
<path d="M56.1877 20.7117V20.7379C56.8535 21.168 57.1041 21.9122 57.235 22.6565C57.2068 22.5763 57.1616 22.5032 57.1024 22.4422C57.0432 22.3812 56.9715 22.3337 56.8922 22.3032C56.8129 22.2726 56.7279 22.2596 56.6431 22.265C56.5583 22.2705 56.4756 22.2944 56.4009 22.3349C56.3785 22.3349 56.4009 22.376 56.4009 22.376C56.5372 22.3603 56.6749 22.388 56.7944 22.4551C56.914 22.5223 57.0093 22.6255 57.0667 22.75C57.1682 22.9523 57.246 23.1657 57.2986 23.3858C57.2986 23.4569 57.4407 23.4457 57.4332 23.3858C57.6239 22.4209 57.1564 20.9959 56.1877 20.7117Z" fill="#263238"/>
<path d="M109.82 26.0938L69.5531 38.4277L76.8132 62.1302L117.08 49.7963L109.82 26.0938Z" fill="#278AFF"/>
<path opacity="0.2" d="M109.82 26.0938L69.5531 38.4277L76.8132 62.1302L117.08 49.7963L109.82 26.0938Z" fill="black"/>
<path opacity="0.2" d="M109.818 26.0939L96.2863 30.2388L103.546 53.9412L117.078 49.7963L109.818 26.0939Z" fill="black"/>
<path d="M109.17 27.3015C108.714 29.401 108.27 31.5004 107.839 33.5999L106.563 39.9132L105.329 46.2527C104.925 48.3621 104.531 50.4752 104.147 52.5921C104.603 50.4952 105.047 48.3957 105.479 46.2938L106.754 39.9805L107.988 33.656C108.392 31.5366 108.786 29.4184 109.17 27.3015Z" fill="#278AFF"/>
<path d="M115.816 49.0018C114.32 47.4659 112.81 45.9362 111.287 44.4127L106.724 39.8647L102.131 35.3504C100.595 33.8544 99.0519 32.3583 97.501 30.8623C98.997 32.4007 100.507 33.9304 102.03 35.4514L106.593 39.9994L111.186 44.5137C112.724 46.0247 114.268 47.5208 115.816 49.0018Z" fill="#278AFF"/>
<path d="M77.2868 41.4825L77.5085 41.4146L76.5545 38.2998L76.3328 38.3677L77.2868 41.4825Z" fill="#263238"/>
<path d="M76.7601 41.6404L76.9818 41.5725L76.0277 38.4577L75.806 38.5256L76.7601 41.6404Z" fill="#263238"/>
<path d="M76.2287 41.8101L76.4504 41.7422L75.4964 38.6274L75.2746 38.6953L76.2287 41.8101Z" fill="#263238"/>
<path d="M75.7026 41.9626L75.9243 41.8948L74.9708 38.7798L74.7491 38.8477L75.7026 41.9626Z" fill="#263238"/>
<path d="M75.1717 42.1275L75.3934 42.0596L74.4394 38.9448L74.2176 39.0127L75.1717 42.1275Z" fill="#263238"/>
<path d="M74.6439 42.2857L74.8656 42.2178L73.9115 39.103L73.6898 39.1709L74.6439 42.2857Z" fill="#263238"/>
<path d="M74.1099 42.4602L74.3317 42.3923L73.3776 39.2775L73.1559 39.3455L74.1099 42.4602Z" fill="#263238"/>
<path d="M73.5814 42.6173L73.8031 42.5493L72.8485 39.4347L72.6268 39.5026L73.5814 42.6173Z" fill="#263238"/>
<path d="M73.0482 42.7854L73.2699 42.7175L72.3158 39.6027L72.0941 39.6707L73.0482 42.7854Z" fill="#263238"/>
<path d="M78.7967 37.8713L77.8766 37.8937L79.8701 37.2766L79.0921 37.7778L79.4437 38.9223C80.0758 38.8138 80.5021 39.3412 80.8238 40.3884L78.8303 41.0167C78.5087 39.9732 78.5648 39.2963 79.1482 39.0307L78.7967 37.8713Z" fill="#263238"/>
<path d="M80.8014 38.6677L81.3213 38.5069L80.8538 36.9809L82.1852 36.5732L82.6528 38.0992L83.1764 37.9384L82.4732 39.8907L80.8014 38.6677Z" fill="#263238"/>
<path opacity="0.1" d="M69.5548 38.4283L70.1495 40.3732L97.9834 35.7803L96.2854 30.2412L69.5548 38.4283Z" fill="black"/>
<path d="M122.298 52.4841L108.762 56.6281L103.545 53.9427L117.08 49.7949L122.298 52.4841Z" fill="#278AFF"/>
<path opacity="0.2" d="M122.298 52.4841L108.762 56.6281L103.545 53.9427L117.08 49.7949L122.298 52.4841Z" fill="black"/>
<path d="M73.9944 67.2798L87.5299 63.132L90.3462 57.9856L76.8107 62.1296L73.9944 67.2798Z" fill="#278AFF"/>
<path opacity="0.1" d="M73.9944 67.2798L87.5299 63.132L90.3462 57.9856L76.8107 62.1296L73.9944 67.2798Z" fill="black"/>
<path d="M51.7182 34.7708C53.6967 41.3871 59.1984 52.7233 61.2405 54.1072C63.0395 55.3451 71.6754 54.2194 75.4529 53.4003C76.8667 53.0973 73.9569 42.3034 72.4609 42.6587C70.6506 43.0888 65.2611 44.1547 64.8796 43.8593C64.4982 43.5638 59.2695 36.7531 55.5294 32.7586C52.1334 29.1232 50.9702 32.2687 51.7182 34.7708Z" fill="#D3766A"/>
<path d="M71.683 43.5375C71.683 43.5375 74.5442 40.3135 76.5713 39.083C78.7111 37.8583 81.1164 37.1716 83.5803 37.0821C86.2395 36.9774 92.7435 38.5557 92.6126 40.508C92.4967 42.2771 85.9328 40.3248 85.9328 40.3248C85.9328 40.3248 92.953 41.2112 92.4219 43.3168C91.8908 45.4225 84.3994 42.7184 84.3994 42.7184C84.3994 42.7184 91.5916 43.7881 90.7164 45.8788C90.0432 47.4534 83.1202 45.3889 83.1202 45.3889C83.1202 45.3889 89.2989 46.3538 88.6743 48.0069C87.9861 49.8284 81.4746 48.3248 81.4746 48.3248C79.1894 52.2445 76.4928 53.187 74.4993 53.6096C74.0019 53.6956 71.683 43.5375 71.683 43.5375Z" fill="#D3766A"/>
<path d="M83.5243 39.8608C84.3509 39.9356 85.1924 40.0067 86.0115 40.1526C86.8306 40.2984 87.6422 40.478 88.4463 40.7024C89.4996 40.9731 90.5186 41.3634 91.4833 41.8655C89.7067 41.0988 86.782 40.5228 85.9629 40.3695C85.1438 40.2162 84.3322 40.0329 83.5168 39.887C83.4944 39.8945 83.5019 39.8608 83.5243 39.8608Z" fill="#263238"/>
<path d="M82.937 42.8119C83.988 42.9503 85.0427 43.0513 86.0899 43.2383C87.1371 43.4253 88.1058 43.6946 89.1344 43.9526C89.2129 43.9713 89.1755 44.0087 89.097 43.99C88.0572 43.7731 87.0848 43.6534 86.045 43.4514C85.0053 43.2495 83.973 43.0026 82.9295 42.8343C82.9146 42.8343 82.9183 42.8081 82.937 42.8119Z" fill="#263238"/>
<path d="M81.9758 45.2504C83.5977 45.4265 85.197 45.7699 86.7482 46.2752C86.8267 46.2977 86.7744 46.3388 86.6921 46.3201C85.1138 45.9461 83.8758 45.6469 81.9721 45.3065C81.9421 45.3028 81.9421 45.2467 81.9758 45.2504Z" fill="#263238"/>
<path d="M74.5964 55.3152L72.0831 42.4043L65.0778 43.5039C62.3999 40.2874 57.0516 33.8544 54.8673 31.9096C52.3054 29.6244 50.5512 31.2551 51.4302 34.6399C53.4423 42.3781 59.5462 53.8079 61.1993 54.93C63.5706 56.5382 74.5964 55.3152 74.5964 55.3152Z" fill="#278AFF"/>
<path opacity="0.1" d="M69.854 44.1956C70.1995 44.2708 70.5515 44.3121 70.905 44.3191C71.653 44.4201 71.9821 45.5234 71.3014 45.9423C70.944 46.1625 70.5399 46.2958 70.1216 46.3315C69.7033 46.3672 69.2824 46.3044 68.8928 46.148C68.1448 45.8563 67.5127 45.1307 67.6735 44.2779C67.7014 44.119 67.7699 43.9699 67.8724 43.8453C67.9749 43.7206 68.108 43.6246 68.2586 43.5667C68.4092 43.5087 68.5722 43.4907 68.7319 43.5144C68.8915 43.5381 69.0423 43.6027 69.1695 43.7019C69.3768 43.8937 69.6067 44.0595 69.854 44.1956ZM69.106 42.8716C69.3406 42.9848 69.5991 43.0397 69.8595 43.0319C70.1199 43.0241 70.3745 42.9537 70.602 42.8268C70.6858 42.7708 70.753 42.6933 70.7965 42.6024L69.106 42.8716ZM65.4668 43.4401C65.7646 43.6577 66.1322 43.7576 66.4991 43.7206C66.6256 43.7033 66.742 43.6421 66.8281 43.5479C66.9142 43.4536 66.9646 43.3321 66.9704 43.2045L65.4668 43.4401ZM73.3959 49.2037C73.2478 49.2657 73.128 49.3802 73.0593 49.5253C72.7451 50.1574 73.1827 50.8381 73.8073 51.2458L73.3959 49.2037ZM62.1307 51.6871C62.011 52.1022 61.996 52.4725 61.6856 52.8091C61.3513 53.0785 61.0523 53.3889 60.7954 53.7329C60.752 53.8176 60.7314 53.9122 60.7355 54.0073C60.7395 54.1023 60.7683 54.1948 60.8188 54.2754C60.8693 54.3561 60.9399 54.4223 61.0236 54.4675C61.1074 54.5127 61.2015 54.5354 61.2966 54.5333C61.9483 54.4531 62.546 54.1311 62.9714 53.6309C63.3967 53.1307 63.6186 52.489 63.593 51.8329C63.572 51.6648 63.4945 51.5088 63.3733 51.3905C63.252 51.2721 63.0942 51.1984 62.9256 51.1815C62.757 51.1645 62.5877 51.2053 62.4453 51.2972C62.3029 51.389 62.1959 51.5265 62.1419 51.6871H62.1307ZM60.8403 48.0629C60.6309 48.5716 60.6683 49.1476 60.4925 49.6786C60.3382 50.1655 60.1546 50.6427 59.9427 51.1074C59.7856 51.444 60.0998 51.9751 60.5075 51.7956C61.1705 51.541 61.7128 51.0454 62.0259 50.408C62.3102 49.8208 62.6244 48.8334 62.3513 48.2088C62.0783 47.5842 61.1695 47.3261 60.8515 48.0629H60.8403ZM55.29 34.8341C55.499 34.8784 55.7169 34.84 55.8982 34.727C56.0795 34.6141 56.21 34.4353 56.2624 34.2283C56.4719 33.4241 55.7538 32.5976 55.1853 32.0964C54.6168 31.5952 53.8164 31.1389 53.0198 31.397C52.9137 31.4314 52.8182 31.4922 52.7423 31.5739C52.6663 31.6555 52.6125 31.7552 52.5859 31.8635C52.5593 31.9717 52.5608 32.085 52.5903 32.1925C52.6197 32.3001 52.6761 32.3983 52.7542 32.4779C53.102 32.9117 53.5845 33.2259 53.9548 33.6523C54.3251 34.0786 54.6504 34.7257 55.3012 34.8341H55.29ZM58.1774 38.0245C58.4915 37.5719 58.2484 36.9024 58.024 36.4723C57.9045 36.2351 57.7187 36.0376 57.4892 35.9038C57.3347 35.805 57.1474 35.7711 56.9681 35.8096C56.7888 35.8482 56.632 35.9559 56.5317 36.1095C56.4297 36.3222 56.4136 36.566 56.4868 36.7902C56.5181 36.9075 56.5607 37.0215 56.614 37.1306V37.1642V37.1942C56.6808 37.5513 56.8322 37.8873 57.0553 38.1741C57.1326 38.2518 57.2268 38.3107 57.3305 38.346C57.4343 38.3814 57.5448 38.3922 57.6535 38.3777C57.7621 38.3632 57.866 38.3238 57.9568 38.2625C58.0477 38.2012 58.1232 38.1198 58.1774 38.0245ZM57.2835 41.7646C57.4202 41.7945 57.5619 41.7945 57.6986 41.7646C57.906 41.7008 58.0812 41.5603 58.1886 41.3719C58.2891 41.1712 58.3391 40.9492 58.3344 40.7248C58.3277 40.5123 58.27 40.3045 58.1661 40.1189L58.0427 39.9656L57.8782 39.8459C57.7752 39.7928 57.6616 39.7636 57.5458 39.7605C57.4301 39.7573 57.3151 39.7803 57.2094 39.8278C57.1037 39.8752 57.0101 39.9459 56.9355 40.0345C56.8609 40.1231 56.8073 40.2274 56.7786 40.3396C56.7163 40.5574 56.6725 40.7801 56.6477 41.0053L56.6813 41.211C56.7075 41.3143 56.7589 41.4093 56.8309 41.4878C56.9461 41.6129 57.098 41.698 57.2648 41.7309L57.2835 41.7646ZM60.4214 37.9684L59.6734 37.1268C59.5539 37.1126 59.4333 37.1428 59.3347 37.2118C59.236 37.2808 59.1662 37.3837 59.1386 37.5008C59.1086 37.7192 59.1086 37.9407 59.1386 38.1591C59.1386 38.2526 59.1386 38.3461 59.1386 38.4434C59.1367 38.5843 59.1517 38.7249 59.1835 38.8622C59.2243 39.0046 59.3118 39.1291 59.4318 39.2159C59.5518 39.3027 59.6975 39.3467 59.8455 39.341C59.9916 39.3334 60.1315 39.2792 60.2446 39.1863C60.3577 39.0934 60.438 38.9667 60.4738 38.8248C60.53 38.5396 60.5119 38.2447 60.4214 37.9684Z" fill="#030402"/>
<path d="M72.1803 54.1294C71.8773 53.3627 71.1667 50.034 70.9984 49.2C70.8301 48.3659 70.2728 45.0148 70.1045 44.1583C70.1045 44.1134 70.1569 44.0835 70.1681 44.1321C70.3476 44.9736 71.1742 48.2911 71.3499 49.1214C71.5257 49.9517 72.1952 53.2804 72.2251 54.1182C72.2266 54.1242 72.2257 54.1305 72.2225 54.1357C72.2194 54.141 72.2143 54.1448 72.2083 54.1463C72.2024 54.1478 72.1961 54.1468 72.1908 54.1437C72.1855 54.1405 72.1817 54.1354 72.1803 54.1294Z" fill="#263238"/>
<path d="M69.869 55.6777C68.7208 55.745 67.5726 55.7712 66.4243 55.7637C65.2719 55.7687 64.1202 55.7025 62.976 55.5655C62.3896 55.5074 61.8164 55.3559 61.278 55.1167C60.7939 54.7749 60.3737 54.3508 60.0362 53.8637C59.3583 52.9278 58.7447 51.9469 58.1998 50.9277C57.0778 48.9118 56.1129 46.8136 55.1704 44.7266C54.2278 42.6397 53.3714 40.4928 52.5859 38.3311C53.5397 40.4218 54.4822 42.5162 55.4621 44.592C56.442 46.6678 57.4331 48.736 58.5028 50.7594C59.0366 51.7687 59.626 52.7476 60.2681 53.6917C60.5679 54.1617 60.9476 54.5756 61.3902 54.9147C61.9002 55.1499 62.4443 55.3026 63.0021 55.3673C65.28 55.6432 67.5755 55.747 69.869 55.6777Z" fill="#263238"/>
<path d="M53.3152 40.1566C53.1616 40.0014 53.0226 39.8324 52.9001 39.6517C52.7731 39.4727 52.6759 39.2744 52.6121 39.0645C52.6684 39.1574 52.7296 39.2472 52.7953 39.3337L52.9786 39.5993C53.1017 39.7782 53.2141 39.9643 53.3152 40.1566Z" fill="#263238"/>
<path d="M59.2209 36.6895C60.1672 37.6394 61.0162 38.6829 61.8951 39.6815C62.7741 40.6802 63.6156 41.7349 64.5132 42.7297L64.8461 43.1037C64.9059 43.1598 64.962 43.2234 65.0181 43.2758C65.0742 43.3281 65.0742 43.3244 65.1004 43.3469C65.1004 43.3469 65.1266 43.3469 65.1415 43.3469C65.4258 43.3469 65.7848 43.2833 66.1065 43.2421L68.0962 42.9467C69.4202 42.7522 70.748 42.5502 72.0757 42.3707L72.1281 42.6998L72.0495 42.3744H72.0682C70.7555 42.6549 69.4502 42.9055 68.1187 43.1486C67.4567 43.2683 66.7947 43.373 66.1289 43.474C65.7886 43.5331 65.4452 43.573 65.1004 43.5937C65.0731 43.5972 65.0454 43.5972 65.0181 43.5937C64.9815 43.5827 64.9472 43.5649 64.9171 43.5413C64.8794 43.512 64.8432 43.4808 64.8087 43.4478L64.6254 43.2683C64.5057 43.1449 64.3935 43.0215 64.2813 42.8943C63.4024 41.8733 62.5496 40.841 61.7119 39.7937L60.4589 38.2192C60.0475 37.7292 59.6735 37.1906 59.2209 36.6895Z" fill="#263238"/>
<path d="M59.7108 36.8018C59.8517 36.9748 59.9768 37.1601 60.0848 37.3553C60.1903 37.5482 60.2647 37.7564 60.3055 37.9724C60.2606 37.8714 60.2045 37.7817 60.1521 37.6844L59.9988 37.3964C59.8922 37.2035 59.796 37.005 59.7108 36.8018Z" fill="#263238"/>
<path d="M14.8521 134.602C14.7137 131.102 14.7623 127.598 14.998 124.103C15.5137 116.901 16.6132 109.753 18.2855 102.729C19.2018 98.7717 20.3314 94.8745 21.5095 90.9923C21.5431 90.8764 21.7302 90.91 21.7002 91.0297C18.0611 104.733 15.0728 118.879 15.2785 133.121C15.3383 137.108 15.7983 141.024 16.1761 144.985C16.1761 145.093 16.0115 145.134 15.9891 145.026C15.2373 141.626 14.9942 138.065 14.8521 134.602Z" fill="#278AFF"/>
<path d="M21.7 91.011C21.7 91.011 27.213 105.006 25.9787 108.294C24.7445 111.582 22.1975 112.285 22.1975 112.285C22.1975 112.285 25.5636 117.102 23.2148 121.635C20.866 126.168 15.6224 125.936 15.2708 131.06C15.2708 131.045 14.9791 109.629 21.7 91.011Z" fill="#278AFF"/>
<path d="M15.8729 122.203C15.8637 122.179 15.8637 122.153 15.8729 122.128C16.6 112.574 18.3952 103.131 21.225 93.9767C21.225 93.9505 21.2774 93.958 21.2699 93.9767C20.1778 98.0683 19.2129 102.182 18.3751 106.319C19.1118 105.62 20.0118 105.116 20.9932 104.853C20.9932 104.853 21.0193 104.853 20.9932 104.879C19.9574 105.262 19.0269 105.885 18.2778 106.697C18.1183 107.505 17.9624 108.316 17.8103 109.132C19.0408 107.755 20.75 107.071 22.4593 106.42C22.4817 106.42 22.4967 106.45 22.4593 106.457C20.679 107.183 18.9024 108.118 17.6981 109.651C17.2742 111.973 16.9002 114.303 16.5761 116.642C17.4674 115.713 18.6096 115.063 19.8636 114.772C19.901 114.772 19.9235 114.82 19.8636 114.832C18.5694 115.205 17.4117 115.947 16.5312 116.967H16.5088C16.3991 117.79 16.2956 118.614 16.1983 119.439C16.9088 118.853 17.7112 118.388 18.5733 118.063C18.5957 118.063 18.607 118.089 18.5733 118.097C17.7291 118.471 16.9559 118.988 16.2881 119.626C16.2881 119.626 16.2881 119.626 16.2582 119.626C16.1684 120.408 16.0749 121.193 15.9964 121.979C17.2385 120.479 18.8497 119.328 20.6715 118.639C20.6752 118.637 20.6791 118.637 20.6831 118.637C20.6871 118.637 20.691 118.638 20.6946 118.639C20.6983 118.641 20.7016 118.643 20.7043 118.646C20.7071 118.649 20.7093 118.652 20.7108 118.656C20.7122 118.659 20.713 118.663 20.7129 118.667C20.7129 118.671 20.7121 118.675 20.7105 118.679C20.7089 118.683 20.7067 118.686 20.7038 118.689C20.701 118.691 20.6976 118.694 20.6939 118.695C18.8944 119.488 17.3135 120.704 16.0861 122.241C16.0735 122.259 16.0554 122.272 16.0344 122.279C16.0135 122.286 15.991 122.285 15.9702 122.278C15.8505 123.482 15.742 124.69 15.656 125.899H15.6261C15.6859 124.675 15.772 123.438 15.8729 122.203Z" fill="#263238"/>
<path d="M20.3013 103.477C21.2995 102.855 22.4404 102.499 23.6151 102.444C23.6413 102.444 23.645 102.482 23.6151 102.485C22.4804 102.695 21.3787 103.055 20.3388 103.555C20.329 103.557 20.3188 103.556 20.3099 103.551C20.301 103.547 20.2938 103.539 20.2895 103.53C20.2852 103.521 20.2841 103.511 20.2862 103.501C20.2883 103.492 20.2937 103.483 20.3013 103.477Z" fill="#263238"/>
<path d="M19.6319 118.291C20.3996 117.853 21.2437 117.565 22.1191 117.442C22.149 117.442 22.1528 117.484 22.1191 117.487C21.2615 117.66 20.432 117.95 19.6544 118.351C19.6282 118.366 19.5983 118.31 19.6319 118.291Z" fill="#263238"/>
<path d="M0.359016 108.522C2.69007 110.135 4.83063 112.007 6.73965 114.102C8.71356 116.317 10.2379 118.894 11.2278 121.691C13.3197 127.519 14.4454 133.65 14.5602 139.842C14.6319 143.271 14.3017 146.696 13.5766 150.048C13.5702 150.072 13.5553 150.092 13.5348 150.105C13.5143 150.118 13.4897 150.123 13.4658 150.119C13.4419 150.115 13.4205 150.102 13.4057 150.082C13.3909 150.063 13.3838 150.039 13.3858 150.015C14.2892 144.099 14.2589 138.077 13.2961 132.171C12.3461 126.381 10.8612 120.083 7.18098 115.378C5.15758 112.827 2.65918 110.803 0.205672 108.713C0.0598076 108.608 0.224372 108.428 0.359016 108.522Z" fill="#278AFF"/>
<path d="M13.7374 135.675C12.4115 133.528 10.8524 131.533 9.08847 129.728C6.32827 126.972 4.00566 125.012 3.64661 123.187C3.28756 121.362 6.41055 120.023 6.41055 120.023C6.41055 120.023 2.5919 120.707 1.54841 119.103C0.504915 117.498 0 108.227 0 108.227C0 108.227 6.9379 113.201 10.1806 120.131C13.4233 127.062 13.7374 135.675 13.7374 135.675Z" fill="#278AFF"/>
<path d="M2.47959 116.941C2.9366 116.876 3.3994 116.861 3.85969 116.896C3.91579 116.896 3.91205 116.993 3.85969 116.993C3.4034 116.993 2.9471 116.971 2.48707 116.993C2.44967 116.986 2.44967 116.941 2.47959 116.941Z" fill="#263238"/>
<path d="M7.47651 125.917C8.2107 125.933 8.93634 126.078 9.61959 126.348C9.61959 126.348 9.61959 126.381 9.61959 126.378C8.91271 126.209 8.19835 126.138 7.48399 126.022C7.41293 126.022 7.41667 125.917 7.47651 125.917Z" fill="#263238"/>
<path d="M8.97618 122.817C9.2811 122.815 9.58552 122.842 9.88503 122.899C9.91495 122.899 9.91121 122.955 9.88503 122.955C9.58134 122.971 9.27691 122.956 8.97618 122.911C8.96602 122.908 8.95709 122.902 8.95073 122.893C8.94436 122.885 8.94092 122.874 8.94092 122.864C8.94092 122.853 8.94436 122.843 8.95073 122.835C8.95709 122.826 8.96602 122.82 8.97618 122.817Z" fill="#263238"/>
<path d="M34.0912 118.37C31.8328 119.135 29.6684 120.154 27.6395 121.407C25.5386 122.749 23.7163 124.483 22.2724 126.516C19.2322 130.75 16.9039 135.452 15.3794 140.436C14.5311 143.195 14.0064 146.043 13.816 148.923C13.816 148.945 13.8247 148.966 13.8401 148.981C13.8556 148.996 13.8765 149.005 13.8983 149.005C13.9201 149.005 13.9411 148.996 13.9565 148.981C13.9719 148.966 13.9806 148.945 13.9806 148.923C14.6126 143.933 16.0223 139.073 18.1583 134.52C20.264 130.054 22.9232 125.3 26.9887 122.346C29.2029 120.734 31.69 119.683 34.1697 118.568C34.3156 118.508 34.2408 118.325 34.0912 118.37Z" fill="#278AFF"/>
<path d="M16.9913 137.25C18.5598 135.818 20.282 134.563 22.1265 133.51C24.9989 131.917 27.329 130.866 28.0434 129.474C28.7577 128.083 26.5473 126.273 26.5473 126.273C26.5473 126.273 29.4758 127.709 30.6914 126.647C31.9069 125.585 34.4577 118.198 34.4577 118.198C34.4577 118.198 27.6955 120.607 23.4692 125.484C19.2429 130.361 16.9913 137.25 16.9913 137.25Z" fill="#278AFF"/>
<path d="M22.6053 130.458C23.2691 130.411 23.9357 130.493 24.5689 130.697C24.5689 130.697 24.5689 130.731 24.5689 130.727C23.9218 130.619 23.2684 130.551 22.6128 130.525C22.6039 130.526 22.5949 130.523 22.5879 130.518C22.5809 130.512 22.5764 130.504 22.5754 130.495C22.5744 130.486 22.577 130.477 22.5826 130.47C22.5882 130.463 22.5964 130.459 22.6053 130.458Z" fill="#263238"/>
<path d="M28.507 122.716C28.8097 122.694 29.114 122.712 29.4121 122.768C29.4179 122.77 29.4228 122.774 29.4263 122.779C29.4298 122.784 29.4316 122.79 29.4316 122.796C29.4316 122.802 29.4298 122.808 29.4263 122.813C29.4228 122.818 29.4179 122.822 29.4121 122.824C29.1167 122.791 28.8212 122.802 28.522 122.794C28.5128 122.794 28.504 122.79 28.497 122.784C28.4901 122.778 28.4854 122.77 28.4836 122.761C28.4819 122.752 28.4833 122.743 28.4875 122.734C28.4918 122.726 28.4986 122.72 28.507 122.716Z" fill="#263238"/>
<path d="M8.26562 158.251H23.5328L21.356 142.299L20.7987 138.211H10.9996L10.4424 142.299L8.26562 158.251Z" fill="#455A64"/>
<path d="M10.4424 142.299H21.356L20.7987 138.211H10.9997L10.4424 142.299Z" fill="#263238"/>
<path d="M9.59338 140.253H22.2013V136.79H9.59338V140.253Z" fill="#455A64"/>
<path d="M89.5944 8.3917C89.5942 9.93089 89.1664 11.4398 88.3587 12.75C87.551 14.0602 86.3951 15.1203 85.0201 15.8119C83.645 16.5035 82.1048 16.7994 80.5714 16.6667C79.0379 16.534 77.5715 15.9779 76.3357 15.0603L72.2627 16.1001L73.957 12.3113C73.3607 11.1973 73.0262 9.96202 72.9791 8.69934C72.932 7.43666 73.1734 6.17986 73.685 5.0245C74.1966 3.86915 74.9649 2.84567 75.9315 2.03189C76.8982 1.21811 78.0376 0.635455 79.2633 0.328238C80.4889 0.021021 81.7685 -0.00267068 83.0046 0.258964C84.2408 0.520599 85.401 1.06067 86.3971 1.83811C87.3932 2.61555 88.1989 3.60989 88.7529 4.74551C89.3069 5.88114 89.5947 7.12814 89.5944 8.3917Z" fill="white"/>
<path d="M89.5943 8.38805C89.5938 9.92916 89.1694 11.4405 88.3675 12.7565C88.1725 13.0883 87.9577 13.408 87.7242 13.714C87.4761 14.0069 87.2101 14.2842 86.9276 14.5443C86.3696 15.0703 85.74 15.5148 85.0575 15.8645C84.3729 16.214 83.6428 16.4658 82.8883 16.6126C82.5095 16.6879 82.1258 16.7354 81.7401 16.7547C81.3555 16.7865 80.9689 16.7865 80.5844 16.7547C79.0287 16.634 77.5371 16.0837 76.2758 15.1651L76.388 15.1876L72.3262 16.2572L71.9971 16.3433L72.1355 16.0291L73.8148 12.2329V12.39C73.2039 11.2543 72.8626 9.99339 72.8172 8.7047C72.7718 7.41601 73.0235 6.13416 73.553 4.95837C74.083 3.78588 74.872 2.74881 75.8606 1.92514C76.848 1.11361 78.0063 0.536236 79.2487 0.236327C80.4911 -0.0635829 81.7853 -0.0782358 83.0341 0.193469C84.2717 0.474996 85.4307 1.02959 86.4264 1.81668C87.4168 2.60137 88.2163 3.60036 88.765 4.73855C89.3137 5.87674 89.5972 7.12451 89.5943 8.38805ZM89.5943 8.38805C89.5936 6.48804 88.9354 4.64681 87.7315 3.17695C86.5275 1.70709 84.8519 0.699194 82.9893 0.324374C81.7637 0.0804228 80.4988 0.118794 79.2903 0.436577C78.0857 0.747675 76.9687 1.33116 76.0252 2.14207C75.0903 2.96175 74.3449 3.97508 73.8409 5.11172C73.3439 6.24514 73.1111 7.47678 73.1602 8.71344C73.2179 9.93779 73.5448 11.1344 74.1177 12.2179L74.1589 12.2965L74.1215 12.375L72.4122 16.16L72.2215 15.9356L76.3019 14.9258H76.3655L76.4141 14.9632C77.6236 15.8818 79.0651 16.4451 80.5769 16.5901C80.9504 16.6176 81.3254 16.6176 81.6989 16.5901C82.8419 16.5508 83.963 16.2664 84.9865 15.7561C85.6692 15.4237 86.2993 14.9927 86.8565 14.477C87.1389 14.2208 87.4049 13.9472 87.6532 13.6579C87.8914 13.3603 88.1124 13.0494 88.3152 12.7266C89.1316 11.4252 89.5741 9.92421 89.5943 8.38805Z" fill="#263238"/>
<path d="M81.8637 9.28941V10.2057C81.8662 10.2973 81.8501 10.3884 81.8163 10.4735C81.7824 10.5587 81.7315 10.636 81.6667 10.7007C81.602 10.7655 81.5247 10.8164 81.4395 10.8503C81.3544 10.8841 81.2633 10.9002 81.1717 10.8977C81.0811 10.8977 80.9913 10.8797 80.9075 10.8449C80.8238 10.8101 80.7478 10.7591 80.6838 10.6948C80.6198 10.6305 80.5692 10.5542 80.5349 10.4702C80.5005 10.3863 80.4831 10.2964 80.4836 10.2057V8.74336C80.4836 8.74336 80.4836 8.74336 80.4836 8.71344C80.4836 8.68352 80.4836 8.71344 80.4836 8.68726C80.4883 8.50587 80.5621 8.33314 80.6901 8.20449C80.8181 8.07584 80.9904 8.001 81.1717 7.99534C81.3852 8.00574 81.5986 7.97267 81.7989 7.89814C81.9992 7.82361 82.1823 7.70917 82.3371 7.56176C82.4919 7.41435 82.6151 7.23704 82.6993 7.04058C82.7835 6.84413 82.8269 6.63261 82.8269 6.41888C82.8269 6.20514 82.7835 5.99363 82.6993 5.79718C82.6151 5.60072 82.4919 5.42341 82.3371 5.276C82.1823 5.12859 81.9992 5.01415 81.7989 4.93962C81.5986 4.86509 81.3852 4.83202 81.1717 4.84242C80.8985 4.84156 80.6299 4.91266 80.3929 5.04857C80.1559 5.18447 79.9588 5.38039 79.8216 5.61662C79.7755 5.6963 79.7142 5.7661 79.6411 5.82203C79.568 5.87796 79.4846 5.9189 79.3956 5.94253C79.3067 5.96616 79.2139 5.972 79.1227 5.95972C79.0315 5.94743 78.9436 5.91727 78.8641 5.87095C78.786 5.82473 78.7179 5.76353 78.6636 5.69087C78.6093 5.61822 78.5699 5.53555 78.5476 5.44761C78.5254 5.35967 78.5207 5.2682 78.534 5.17846C78.5472 5.08872 78.578 5.00248 78.6247 4.9247C78.8707 4.50104 79.2181 4.1451 79.6357 3.88885C80.0532 3.6326 80.5279 3.48406 81.0171 3.45657C81.5062 3.42907 81.9945 3.52348 82.4382 3.73132C82.8818 3.93916 83.2669 4.25393 83.5588 4.64735C83.8508 5.04078 84.0405 5.50055 84.1108 5.98538C84.1812 6.47022 84.1301 6.96494 83.962 7.42513C83.794 7.88533 83.5143 8.29658 83.148 8.62197C82.7818 8.94737 82.3404 9.17671 81.8637 9.28941ZM81.8637 12.375V12.6293C81.8657 12.7206 81.8492 12.8113 81.8151 12.896C81.781 12.9807 81.7301 13.0575 81.6654 13.1219C81.6006 13.1863 81.5235 13.2368 81.4386 13.2704C81.3538 13.3041 81.263 13.3201 81.1717 13.3175C80.9892 13.3175 80.8142 13.245 80.6851 13.116C80.5561 12.9869 80.4836 12.8118 80.4836 12.6293V12.375C80.4855 12.1927 80.5585 12.0184 80.687 11.8892C80.8156 11.76 80.9895 11.686 81.1717 11.6831C81.2629 11.6821 81.3533 11.6993 81.4377 11.7337C81.5221 11.7681 81.5988 11.8191 81.6632 11.8835C81.7277 11.948 81.7786 12.0246 81.813 12.109C81.8475 12.1934 81.8647 12.2839 81.8637 12.375Z" fill="#278AFF"/>
</svg>
